<?xml version="1.0" encoding="utf-8" standalone="no"?>
<!DOCTYPE svg PUBLIC "-//W3C//DTD SVG 1.1//EN"
  "http://www.w3.org/Graphics/SVG/1.1/DTD/svg11.dtd">
<svg xmlns:xlink="http://www.w3.org/1999/xlink" width="1162.85pt" height="602.115938pt" viewBox="0 0 1162.85 602.115938" xmlns="http://www.w3.org/2000/svg" version="1.1">
 <metadata>
  <rdf:RDF xmlns:dc="http://purl.org/dc/elements/1.1/" xmlns:cc="http://creativecommons.org/ns#" xmlns:rdf="http://www.w3.org/1999/02/22-rdf-syntax-ns#">
   <cc:Work>
    <dc:type rdf:resource="http://purl.org/dc/dcmitype/StillImage"/>
    <dc:date>2022-12-02T17:16:31.327929</dc:date>
    <dc:format>image/svg+xml</dc:format>
    <dc:creator>
     <cc:Agent>
      <dc:title>Matplotlib v3.6.2, https://matplotlib.org/</dc:title>
     </cc:Agent>
    </dc:creator>
   </cc:Work>
  </rdf:RDF>
 </metadata>
 <defs>
  <style type="text/css">*{stroke-linejoin: round; stroke-linecap: butt}</style>
 </defs>
 <g id="figure_1">
  <g id="patch_1">
   <path d="M 0 602.115938 
L 1162.85 602.115938 
L 1162.85 0 
L 0 0 
z
" style="fill: #ffffff"/>
  </g>
  <g id="axes_1">
   <g id="patch_2">
    <path d="M 39.65 578.237813 
L 1155.65 578.237813 
L 1155.65 23.837813 
L 39.65 23.837813 
z
" style="fill: #ffffff"/>
   </g>
   <g id="matplotlib.axis_1">
    <g id="xtick_1">
     <g id="line2d_1">
      <defs>
       <path id="me16636f0bb" d="M 0 0 
L 0 3.5 
" style="stroke: #000000; stroke-width: 0.8"/>
      </defs>
      <g>
       <use xlink:href="#me16636f0bb" x="90.377273" y="578.237813" style="stroke: #000000; stroke-width: 0.8"/>
      </g>
     </g>
     <g id="text_1">
      <!-- 0 -->
      <g transform="translate(87.196023 592.83625) scale(0.1 -0.1)">
       <defs>
        <path id="DejaVuSans-30" d="M 2034 4250 
Q 1547 4250 1301 3770 
Q 1056 3291 1056 2328 
Q 1056 1369 1301 889 
Q 1547 409 2034 409 
Q 2525 409 2770 889 
Q 3016 1369 3016 2328 
Q 3016 3291 2770 3770 
Q 2525 4250 2034 4250 
z
M 2034 4750 
Q 2819 4750 3233 4129 
Q 3647 3509 3647 2328 
Q 3647 1150 3233 529 
Q 2819 -91 2034 -91 
Q 1250 -91 836 529 
Q 422 1150 422 2328 
Q 422 3509 836 4129 
Q 1250 4750 2034 4750 
z
" transform="scale(0.015625)"/>
       </defs>
       <use xlink:href="#DejaVuSans-30"/>
      </g>
     </g>
    </g>
    <g id="xtick_2">
     <g id="line2d_2">
      <g>
       <use xlink:href="#me16636f0bb" x="293.489476" y="578.237813" style="stroke: #000000; stroke-width: 0.8"/>
      </g>
     </g>
     <g id="text_2">
      <!-- 200 -->
      <g transform="translate(283.945726 592.83625) scale(0.1 -0.1)">
       <defs>
        <path id="DejaVuSans-32" d="M 1228 531 
L 3431 531 
L 3431 0 
L 469 0 
L 469 531 
Q 828 903 1448 1529 
Q 2069 2156 2228 2338 
Q 2531 2678 2651 2914 
Q 2772 3150 2772 3378 
Q 2772 3750 2511 3984 
Q 2250 4219 1831 4219 
Q 1534 4219 1204 4116 
Q 875 4013 500 3803 
L 500 4441 
Q 881 4594 1212 4672 
Q 1544 4750 1819 4750 
Q 2544 4750 2975 4387 
Q 3406 4025 3406 3419 
Q 3406 3131 3298 2873 
Q 3191 2616 2906 2266 
Q 2828 2175 2409 1742 
Q 1991 1309 1228 531 
z
" transform="scale(0.015625)"/>
       </defs>
       <use xlink:href="#DejaVuSans-32"/>
       <use xlink:href="#DejaVuSans-30" x="63.623047"/>
       <use xlink:href="#DejaVuSans-30" x="127.246094"/>
      </g>
     </g>
    </g>
    <g id="xtick_3">
     <g id="line2d_3">
      <g>
       <use xlink:href="#me16636f0bb" x="496.601679" y="578.237813" style="stroke: #000000; stroke-width: 0.8"/>
      </g>
     </g>
     <g id="text_3">
      <!-- 400 -->
      <g transform="translate(487.057929 592.83625) scale(0.1 -0.1)">
       <defs>
        <path id="DejaVuSans-34" d="M 2419 4116 
L 825 1625 
L 2419 1625 
L 2419 4116 
z
M 2253 4666 
L 3047 4666 
L 3047 1625 
L 3713 1625 
L 3713 1100 
L 3047 1100 
L 3047 0 
L 2419 0 
L 2419 1100 
L 313 1100 
L 313 1709 
L 2253 4666 
z
" transform="scale(0.015625)"/>
       </defs>
       <use xlink:href="#DejaVuSans-34"/>
       <use xlink:href="#DejaVuSans-30" x="63.623047"/>
       <use xlink:href="#DejaVuSans-30" x="127.246094"/>
      </g>
     </g>
    </g>
    <g id="xtick_4">
     <g id="line2d_4">
      <g>
       <use xlink:href="#me16636f0bb" x="699.713882" y="578.237813" style="stroke: #000000; stroke-width: 0.8"/>
      </g>
     </g>
     <g id="text_4">
      <!-- 600 -->
      <g transform="translate(690.170132 592.83625) scale(0.1 -0.1)">
       <defs>
        <path id="DejaVuSans-36" d="M 2113 2584 
Q 1688 2584 1439 2293 
Q 1191 2003 1191 1497 
Q 1191 994 1439 701 
Q 1688 409 2113 409 
Q 2538 409 2786 701 
Q 3034 994 3034 1497 
Q 3034 2003 2786 2293 
Q 2538 2584 2113 2584 
z
M 3366 4563 
L 3366 3988 
Q 3128 4100 2886 4159 
Q 2644 4219 2406 4219 
Q 1781 4219 1451 3797 
Q 1122 3375 1075 2522 
Q 1259 2794 1537 2939 
Q 1816 3084 2150 3084 
Q 2853 3084 3261 2657 
Q 3669 2231 3669 1497 
Q 3669 778 3244 343 
Q 2819 -91 2113 -91 
Q 1303 -91 875 529 
Q 447 1150 447 2328 
Q 447 3434 972 4092 
Q 1497 4750 2381 4750 
Q 2619 4750 2861 4703 
Q 3103 4656 3366 4563 
z
" transform="scale(0.015625)"/>
       </defs>
       <use xlink:href="#DejaVuSans-36"/>
       <use xlink:href="#DejaVuSans-30" x="63.623047"/>
       <use xlink:href="#DejaVuSans-30" x="127.246094"/>
      </g>
     </g>
    </g>
    <g id="xtick_5">
     <g id="line2d_5">
      <g>
       <use xlink:href="#me16636f0bb" x="902.826085" y="578.237813" style="stroke: #000000; stroke-width: 0.8"/>
      </g>
     </g>
     <g id="text_5">
      <!-- 800 -->
      <g transform="translate(893.282335 592.83625) scale(0.1 -0.1)">
       <defs>
        <path id="DejaVuSans-38" d="M 2034 2216 
Q 1584 2216 1326 1975 
Q 1069 1734 1069 1313 
Q 1069 891 1326 650 
Q 1584 409 2034 409 
Q 2484 409 2743 651 
Q 3003 894 3003 1313 
Q 3003 1734 2745 1975 
Q 2488 2216 2034 2216 
z
M 1403 2484 
Q 997 2584 770 2862 
Q 544 3141 544 3541 
Q 544 4100 942 4425 
Q 1341 4750 2034 4750 
Q 2731 4750 3128 4425 
Q 3525 4100 3525 3541 
Q 3525 3141 3298 2862 
Q 3072 2584 2669 2484 
Q 3125 2378 3379 2068 
Q 3634 1759 3634 1313 
Q 3634 634 3220 271 
Q 2806 -91 2034 -91 
Q 1263 -91 848 271 
Q 434 634 434 1313 
Q 434 1759 690 2068 
Q 947 2378 1403 2484 
z
M 1172 3481 
Q 1172 3119 1398 2916 
Q 1625 2713 2034 2713 
Q 2441 2713 2670 2916 
Q 2900 3119 2900 3481 
Q 2900 3844 2670 4047 
Q 2441 4250 2034 4250 
Q 1625 4250 1398 4047 
Q 1172 3844 1172 3481 
z
" transform="scale(0.015625)"/>
       </defs>
       <use xlink:href="#DejaVuSans-38"/>
       <use xlink:href="#DejaVuSans-30" x="63.623047"/>
       <use xlink:href="#DejaVuSans-30" x="127.246094"/>
      </g>
     </g>
    </g>
    <g id="xtick_6">
     <g id="line2d_6">
      <g>
       <use xlink:href="#me16636f0bb" x="1105.938288" y="578.237813" style="stroke: #000000; stroke-width: 0.8"/>
      </g>
     </g>
     <g id="text_6">
      <!-- 1000 -->
      <g transform="translate(1093.213288 592.83625) scale(0.1 -0.1)">
       <defs>
        <path id="DejaVuSans-31" d="M 794 531 
L 1825 531 
L 1825 4091 
L 703 3866 
L 703 4441 
L 1819 4666 
L 2450 4666 
L 2450 531 
L 3481 531 
L 3481 0 
L 794 0 
L 794 531 
z
" transform="scale(0.015625)"/>
       </defs>
       <use xlink:href="#DejaVuSans-31"/>
       <use xlink:href="#DejaVuSans-30" x="63.623047"/>
       <use xlink:href="#DejaVuSans-30" x="127.246094"/>
       <use xlink:href="#DejaVuSans-30" x="190.869141"/>
      </g>
     </g>
    </g>
   </g>
   <g id="matplotlib.axis_2">
    <g id="ytick_1">
     <g id="line2d_7">
      <defs>
       <path id="me331adc3ec" d="M 0 0 
L -3.5 0 
" style="stroke: #000000; stroke-width: 0.8"/>
      </defs>
      <g>
       <use xlink:href="#me331adc3ec" x="39.65" y="575.012535" style="stroke: #000000; stroke-width: 0.8"/>
      </g>
     </g>
     <g id="text_7">
      <!-- 900 -->
      <g transform="translate(13.5625 578.811753) scale(0.1 -0.1)">
       <defs>
        <path id="DejaVuSans-39" d="M 703 97 
L 703 672 
Q 941 559 1184 500 
Q 1428 441 1663 441 
Q 2288 441 2617 861 
Q 2947 1281 2994 2138 
Q 2813 1869 2534 1725 
Q 2256 1581 1919 1581 
Q 1219 1581 811 2004 
Q 403 2428 403 3163 
Q 403 3881 828 4315 
Q 1253 4750 1959 4750 
Q 2769 4750 3195 4129 
Q 3622 3509 3622 2328 
Q 3622 1225 3098 567 
Q 2575 -91 1691 -91 
Q 1453 -91 1209 -44 
Q 966 3 703 97 
z
M 1959 2075 
Q 2384 2075 2632 2365 
Q 2881 2656 2881 3163 
Q 2881 3666 2632 3958 
Q 2384 4250 1959 4250 
Q 1534 4250 1286 3958 
Q 1038 3666 1038 3163 
Q 1038 2656 1286 2365 
Q 1534 2075 1959 2075 
z
" transform="scale(0.015625)"/>
       </defs>
       <use xlink:href="#DejaVuSans-39"/>
       <use xlink:href="#DejaVuSans-30" x="63.623047"/>
       <use xlink:href="#DejaVuSans-30" x="127.246094"/>
      </g>
     </g>
    </g>
    <g id="ytick_2">
     <g id="line2d_8">
      <g>
       <use xlink:href="#me331adc3ec" x="39.65" y="453.909448" style="stroke: #000000; stroke-width: 0.8"/>
      </g>
     </g>
     <g id="text_8">
      <!-- 1000 -->
      <g transform="translate(7.2 457.708666) scale(0.1 -0.1)">
       <use xlink:href="#DejaVuSans-31"/>
       <use xlink:href="#DejaVuSans-30" x="63.623047"/>
       <use xlink:href="#DejaVuSans-30" x="127.246094"/>
       <use xlink:href="#DejaVuSans-30" x="190.869141"/>
      </g>
     </g>
    </g>
    <g id="ytick_3">
     <g id="line2d_9">
      <g>
       <use xlink:href="#me331adc3ec" x="39.65" y="332.806361" style="stroke: #000000; stroke-width: 0.8"/>
      </g>
     </g>
     <g id="text_9">
      <!-- 1100 -->
      <g transform="translate(7.2 336.60558) scale(0.1 -0.1)">
       <use xlink:href="#DejaVuSans-31"/>
       <use xlink:href="#DejaVuSans-31" x="63.623047"/>
       <use xlink:href="#DejaVuSans-30" x="127.246094"/>
       <use xlink:href="#DejaVuSans-30" x="190.869141"/>
      </g>
     </g>
    </g>
    <g id="ytick_4">
     <g id="line2d_10">
      <g>
       <use xlink:href="#me331adc3ec" x="39.65" y="211.703274" style="stroke: #000000; stroke-width: 0.8"/>
      </g>
     </g>
     <g id="text_10">
      <!-- 1200 -->
      <g transform="translate(7.2 215.502493) scale(0.1 -0.1)">
       <use xlink:href="#DejaVuSans-31"/>
       <use xlink:href="#DejaVuSans-32" x="63.623047"/>
       <use xlink:href="#DejaVuSans-30" x="127.246094"/>
       <use xlink:href="#DejaVuSans-30" x="190.869141"/>
      </g>
     </g>
    </g>
    <g id="ytick_5">
     <g id="line2d_11">
      <g>
       <use xlink:href="#me331adc3ec" x="39.65" y="90.600187" style="stroke: #000000; stroke-width: 0.8"/>
      </g>
     </g>
     <g id="text_11">
      <!-- 1300 -->
      <g transform="translate(7.2 94.399406) scale(0.1 -0.1)">
       <defs>
        <path id="DejaVuSans-33" d="M 2597 2516 
Q 3050 2419 3304 2112 
Q 3559 1806 3559 1356 
Q 3559 666 3084 287 
Q 2609 -91 1734 -91 
Q 1441 -91 1130 -33 
Q 819 25 488 141 
L 488 750 
Q 750 597 1062 519 
Q 1375 441 1716 441 
Q 2309 441 2620 675 
Q 2931 909 2931 1356 
Q 2931 1769 2642 2001 
Q 2353 2234 1838 2234 
L 1294 2234 
L 1294 2753 
L 1863 2753 
Q 2328 2753 2575 2939 
Q 2822 3125 2822 3475 
Q 2822 3834 2567 4026 
Q 2313 4219 1838 4219 
Q 1578 4219 1281 4162 
Q 984 4106 628 3988 
L 628 4550 
Q 988 4650 1302 4700 
Q 1616 4750 1894 4750 
Q 2613 4750 3031 4423 
Q 3450 4097 3450 3541 
Q 3450 3153 3228 2886 
Q 3006 2619 2597 2516 
z
" transform="scale(0.015625)"/>
       </defs>
       <use xlink:href="#DejaVuSans-31"/>
       <use xlink:href="#DejaVuSans-33" x="63.623047"/>
       <use xlink:href="#DejaVuSans-30" x="127.246094"/>
       <use xlink:href="#DejaVuSans-30" x="190.869141"/>
      </g>
     </g>
    </g>
   </g>
   <g id="line2d_12">
    <path d="M 90.377273 483.391843 
L 91.392834 486.122869 
L 93.423956 486.122869 
L 94.439517 499.928621 
L 95.455078 485.717173 
L 100.532883 485.717173 
L 101.548444 492.662435 
L 103.579566 490.240374 
L 105.610688 490.240374 
L 106.626249 484.657521 
L 107.64181 477.223149 
L 108.657371 476.309401 
L 109.672932 483.842061 
L 110.688493 483.842061 
L 111.704054 473.285942 
L 112.719615 490.11239 
L 113.735176 489.990901 
L 116.781859 489.990901 
L 117.79742 479.86305 
L 118.812981 474.496972 
L 119.828542 477.668662 
L 120.844103 472.690114 
L 121.859664 472.690114 
L 122.875225 472.074911 
L 123.890786 466.019756 
L 124.906347 466.019756 
L 125.921908 454.375695 
L 126.937469 461.474757 
L 127.95303 456.331509 
L 128.968591 454.200095 
L 129.984152 456.622157 
L 130.999713 446.697759 
L 132.015274 461.882875 
L 133.030835 444.221201 
L 134.046396 458.89524 
L 135.061957 444.221201 
L 136.077518 451.298186 
L 137.093079 429.714462 
L 138.10864 429.714462 
L 139.124201 453.909448 
L 140.139762 464.719109 
L 141.155324 441.799139 
L 144.202007 441.799139 
L 145.217568 458.753571 
L 146.233129 453.909448 
L 147.24869 453.909448 
L 148.264251 441.799139 
L 149.279812 441.799139 
L 150.295373 453.909448 
L 151.310934 451.114388 
L 154.357617 451.114388 
L 156.388739 431.602586 
L 160.450983 431.602586 
L 161.466544 453.909448 
L 172.637715 453.909448 
L 173.653276 441.799139 
L 174.668837 435.743985 
L 175.684398 417.578522 
L 176.699959 417.578522 
L 177.71552 430.303786 
L 188.886691 430.303786 
L 189.902252 420.35481 
L 193.964496 420.35481 
L 194.980057 432.725848 
L 198.02674 432.725848 
L 199.042301 449.065324 
L 200.057862 453.909448 
L 201.073423 459.326377 
L 202.088984 441.799139 
L 203.104545 441.799139 
L 204.120106 436.5142 
L 208.182351 436.5142 
L 209.197912 433.456493 
L 225.446888 433.456493 
L 226.462449 445.978102 
L 233.571376 445.978102 
L 234.586937 423.936434 
L 235.602498 416.355065 
L 236.618059 416.355065 
L 237.63362 409.101306 
L 238.649181 397.588431 
L 242.711425 397.588431 
L 243.726986 393.357904 
L 244.742547 413.603433 
L 245.758108 411.325556 
L 248.804791 411.325556 
L 249.820352 406.679244 
L 250.835913 393.357904 
L 253.882596 393.357904 
L 254.898157 391.904667 
L 255.913718 381.247596 
L 256.929279 393.357904 
L 258.960401 393.357904 
L 259.975962 378.327987 
L 262.007084 378.327987 
L 263.022645 393.357904 
L 264.038206 427.671253 
L 265.053767 408.95356 
L 266.069328 411.414374 
L 267.084889 411.414374 
L 268.10045 400.498124 
L 271.147133 400.498124 
L 272.162695 395.013383 
L 273.178256 395.013383 
L 274.193817 377.823632 
L 275.209378 381.146246 
L 276.224939 378.724185 
L 277.2405 378.724185 
L 278.256061 400.018574 
L 279.271622 402.89657 
L 280.287183 378.724185 
L 281.302744 394.912554 
L 282.318305 372.071579 
L 283.333866 369.137287 
L 284.349427 363.181437 
L 285.364988 366.715225 
L 286.380549 381.247596 
L 287.39611 387.30275 
L 288.411671 375.192441 
L 290.442793 375.192441 
L 291.458354 392.152929 
L 292.473915 405.468213 
L 293.489476 466.88097 
L 294.505037 521.042944 
L 295.520598 478.604789 
L 296.536159 479.091624 
L 297.55172 478.130065 
L 298.567281 502.796543 
L 299.582842 520.516145 
L 300.598403 517.052597 
L 301.613964 509.793123 
L 302.629525 505.983775 
L 304.660647 505.983775 
L 305.676208 502.350682 
L 308.722891 502.350682 
L 309.738452 498.414832 
L 310.754013 492.118766 
L 311.769574 508.405837 
L 312.785135 508.405837 
L 313.800696 514.460991 
L 314.816257 514.460991 
L 315.831818 515.575197 
L 316.847379 514.460991 
L 317.86294 491.451405 
L 318.878501 491.451405 
L 319.894062 486.073294 
L 320.909623 486.073294 
L 322.940745 473.029012 
L 323.956306 472.930371 
L 324.971867 467.472993 
L 325.987428 460.446592 
L 332.080794 460.446592 
L 333.096355 454.39386 
L 334.111916 454.39386 
L 335.127477 452.022032 
L 338.174161 452.022032 
L 339.189722 456.690656 
L 366.609869 456.690656 
L 367.62543 462.572753 
L 368.640991 462.572753 
L 369.656552 463.597695 
L 370.672113 466.140859 
L 371.687674 453.909448 
L 372.703235 447.614564 
L 374.734357 447.614564 
L 375.749918 453.909448 
L 376.765479 447.855504 
L 378.796601 447.855504 
L 379.812162 449.065324 
L 380.827723 447.856715 
L 383.874406 447.855504 
L 384.889967 466.019756 
L 385.905528 478.604789 
L 393.014455 478.604789 
L 394.030016 469.652849 
L 398.09226 469.652849 
L 399.107821 457.54254 
L 400.123382 447.855504 
L 402.154505 447.855504 
L 403.170066 472.074911 
L 405.201188 472.074911 
L 406.216749 452.021451 
L 407.23231 449.0956 
L 408.247871 447.614509 
L 409.263432 447.614509 
L 410.278993 439.377077 
L 411.294554 446.519737 
L 412.310115 434.381575 
L 413.325676 453.463573 
L 417.38792 453.463573 
L 418.403481 452.698417 
L 419.419042 436.955016 
L 424.496847 436.955016 
L 425.512408 441.799139 
L 430.590213 441.799139 
L 431.605774 452.516762 
L 442.776945 452.577314 
L 443.792506 436.483925 
L 444.808067 432.110892 
L 448.870311 432.110892 
L 449.885872 452.577314 
L 450.901433 452.577314 
L 451.916994 432.110892 
L 452.932555 423.633676 
L 455.979238 423.633676 
L 456.994799 435.942394 
L 459.025921 435.942394 
L 460.041482 417.578522 
L 461.057043 413.459782 
L 462.072604 413.459806 
L 463.088165 415.413195 
L 464.103726 414.670836 
L 465.119287 414.670836 
L 466.134848 405.468214 
L 468.165971 405.468213 
L 469.181532 394.153659 
L 470.197093 416.507745 
L 472.228215 416.507745 
L 473.243776 417.163246 
L 478.321581 417.163246 
L 479.337142 414.697345 
L 482.383825 414.697345 
L 483.399386 399.413059 
L 484.414947 394.153664 
L 485.430508 394.568935 
L 487.46163 394.568935 
L 488.477191 394.153552 
L 490.508313 376.973068 
L 491.523874 376.973068 
L 492.539435 379.420405 
L 498.632801 379.420405 
L 499.648362 396.990997 
L 500.663923 399.378401 
L 501.679484 399.378401 
L 502.695045 381.415929 
L 503.710606 374.148271 
L 511.835094 374.148271 
L 512.850655 391.570349 
L 513.866216 376.87965 
L 514.881777 372.090725 
L 516.912899 372.090991 
L 517.92846 368.994385 
L 521.990704 368.994385 
L 523.006265 393.60011 
L 536.208559 393.60011 
L 537.22412 397.12421 
L 542.301925 397.12421 
L 543.317486 387.520735 
L 549.410852 387.520735 
L 550.426413 396.532016 
L 551.441974 398.202149 
L 554.488657 398.202149 
L 555.504218 388.731766 
L 556.519779 371.78846 
L 558.550901 371.78846 
L 559.566462 376.259411 
L 562.613145 376.259411 
L 563.628706 391.428732 
L 564.644267 380.788615 
L 565.659828 380.788615 
L 566.675389 373.52243 
L 567.69095 372.770379 
L 568.706511 372.770379 
L 569.722072 390.935842 
L 571.753194 358.238009 
L 575.815438 358.238009 
L 576.830999 354.532255 
L 577.84656 344.725327 
L 578.862121 332.806361 
L 579.877682 333.572791 
L 580.893243 344.725327 
L 581.908804 336.005232 
L 582.924365 328.920032 
L 583.939926 330.946217 
L 584.955487 308.585743 
L 585.971048 314.568236 
L 586.986609 317.4214 
L 588.00217 325.588617 
L 589.017731 323.16663 
L 590.033292 319.485021 
L 593.079975 319.485021 
L 594.095536 303.817201 
L 595.111097 319.239182 
L 596.126658 316.58218 
L 597.142219 299.684807 
L 598.157781 305.415749 
L 599.173342 305.415749 
L 600.188903 301.512046 
L 601.204464 312.970886 
L 602.220025 312.249139 
L 603.235586 312.249139 
L 604.251147 309.693837 
L 605.266708 309.191259 
L 606.282269 309.191259 
L 607.29783 321.53893 
L 608.313391 309.191259 
L 609.328952 309.191259 
L 610.344513 303.995936 
L 611.360074 314.640898 
L 612.375635 298.871992 
L 613.391196 314.640898 
L 614.406757 296.938049 
L 615.422318 309.26294 
L 616.437879 309.26294 
L 617.45344 290.42028 
L 618.469001 288.935557 
L 619.484562 288.935557 
L 620.500123 311.626642 
L 621.515684 311.626642 
L 622.531245 311.480201 
L 623.546806 301.319558 
L 627.60905 301.319558 
L 628.624611 296.475435 
L 629.640172 288.935557 
L 630.655733 303.283418 
L 631.671294 303.283418 
L 632.686855 279.521003 
L 633.702416 277.677814 
L 634.717977 276.951195 
L 635.733538 276.951195 
L 636.749099 260.144509 
L 637.76466 277.072298 
L 638.780221 260.168729 
L 639.795782 252.002748 
L 640.811343 252.002748 
L 641.826904 269.300713 
L 642.842465 244.401107 
L 643.858026 236.386505 
L 644.873587 242.705664 
L 646.904709 242.705659 
L 647.92027 212.165888 
L 648.935831 210.954857 
L 649.951392 206.374738 
L 650.966953 181.802239 
L 651.982514 210.310588 
L 652.998075 241.979046 
L 654.013636 241.979046 
L 655.029197 224.250112 
L 656.044758 257.23971 
L 657.060319 271.546539 
L 658.07588 271.546539 
L 659.091441 220.18049 
L 660.107002 220.18049 
L 661.122563 215.228684 
L 662.138124 203.377947 
L 663.153686 241.979046 
L 664.169247 244.528181 
L 667.21593 244.528181 
L 668.231491 229.868737 
L 669.247052 246.938217 
L 670.262613 225.290871 
L 671.278174 225.290871 
L 672.293735 246.932161 
L 673.309296 235.923891 
L 675.340418 235.923891 
L 676.355979 239.556984 
L 677.37154 239.556984 
L 678.387101 223.813583 
L 681.433784 223.813583 
L 682.449345 246.823169 
L 683.464906 232.677682 
L 684.480467 260.144509 
L 685.496028 293.111191 
L 686.511589 297.417617 
L 687.52715 297.4176 
L 688.542711 260.144509 
L 689.558272 261.961055 
L 693.620516 261.961055 
L 694.636077 280.663966 
L 695.651638 302.435359 
L 697.68276 302.434918 
L 698.698321 272.641136 
L 699.713882 271.649302 
L 700.729443 261.961055 
L 701.745004 261.961055 
L 702.760565 254.089354 
L 703.776126 261.961049 
L 705.807248 261.961049 
L 706.822809 261.826414 
L 708.853931 261.826414 
L 709.869492 245.612138 
L 710.885053 232.677118 
L 712.916175 232.677118 
L 713.931736 238.345953 
L 714.947297 261.961043 
L 716.978419 261.961043 
L 717.99398 233.50183 
L 719.009541 246.911511 
L 720.025102 229.868737 
L 724.087346 229.868737 
L 725.102907 245.612138 
L 726.118468 245.612138 
L 727.134029 227.302113 
L 728.14959 228.536603 
L 729.165152 245.612138 
L 730.180713 227.325572 
L 731.196274 235.923891 
L 734.242957 235.923891 
L 735.258518 218.969459 
L 736.274079 211.703274 
L 737.28964 211.703274 
L 738.305201 215.336367 
L 741.351884 215.336367 
L 742.367445 211.703274 
L 743.383006 211.703274 
L 744.398567 204.437089 
L 745.414128 202.015027 
L 746.429689 203.516705 
L 750.491933 203.516705 
L 751.507494 220.919219 
L 752.523055 220.919219 
L 753.538616 220.18049 
L 754.554177 220.18049 
L 755.569738 235.464911 
L 757.60086 235.464911 
L 758.616421 216.52681 
L 759.631982 223.813583 
L 760.647543 213.972746 
L 761.663104 213.972746 
L 762.678665 217.758428 
L 765.725348 217.758428 
L 766.740909 234.712802 
L 769.787592 234.712802 
L 770.803153 217.758428 
L 771.818714 212.875992 
L 777.91208 212.875992 
L 778.927641 222.602548 
L 780.958763 187.482657 
L 781.974324 179.865272 
L 782.989885 183.286435 
L 784.005446 183.286435 
L 785.021007 176.474386 
L 787.052129 176.474386 
L 788.06769 177.79441 
L 789.083251 208.302699 
L 790.098812 183.286435 
L 791.114373 174.801765 
L 792.129934 171.00606 
L 793.145495 171.00606 
L 794.161057 185.53843 
L 795.176618 187.482657 
L 796.192179 187.482657 
L 797.20774 199.133955 
L 799.238862 199.133955 
L 800.254423 181.427502 
L 801.269984 169.392277 
L 802.285545 187.535351 
L 803.301106 187.506877 
L 804.316667 175.372348 
L 805.332228 183.330011 
L 806.347789 169.392277 
L 807.36335 152.253769 
L 808.378911 148.729669 
L 809.394472 139.041422 
L 810.410033 161.414746 
L 811.425594 119.177047 
L 812.441155 129.521508 
L 813.456716 155.536873 
L 814.472277 151.15173 
L 815.487838 151.15173 
L 816.503399 145.096576 
L 819.550082 145.096576 
L 820.565643 125.236894 
L 821.581204 152.796302 
L 822.596765 139.041422 
L 823.612326 128.515141 
L 824.627887 108.217598 
L 825.643448 108.217598 
L 826.659009 131.316256 
L 827.67457 108.217598 
L 828.690131 114.151104 
L 829.705692 134.100416 
L 830.721253 114.881356 
L 833.767936 114.881356 
L 834.783497 132.986267 
L 835.799058 126.931113 
L 836.814619 126.931113 
L 837.83018 108.039036 
L 838.845741 129.57307 
L 839.861302 113.609774 
L 841.892424 113.609774 
L 842.907985 108.039032 
L 843.923546 103.824644 
L 844.939107 103.824644 
L 845.954668 123.540226 
L 846.970229 123.540226 
L 847.98579 103.37293 
L 849.001351 101.985551 
L 850.016912 123.419124 
L 851.032473 101.985551 
L 852.048034 114.820804 
L 853.063595 135.408329 
L 855.094717 135.408329 
L 856.110278 134.197298 
L 857.125839 146.185293 
L 858.1414 146.185793 
L 859.156962 154.685519 
L 860.172523 154.685519 
L 861.188084 121.443932 
L 862.203645 149.798525 
L 863.219206 149.798525 
L 864.234767 123.29802 
L 866.265889 123.29802 
L 867.28145 116.390313 
L 868.297011 120.977685 
L 873.374816 120.977685 
L 874.390377 154.256814 
L 875.405938 139.041422 
L 877.43706 139.041422 
L 878.452621 153.956478 
L 880.483743 153.956478 
L 881.499304 125.720082 
L 882.514865 120.977685 
L 883.530426 120.977685 
L 884.545987 122.188716 
L 885.561548 120.977685 
L 887.59267 120.977685 
L 888.608231 116.3903 
L 891.654914 116.3903 
L 892.670475 124.509051 
L 893.686036 124.509051 
L 894.701597 116.3903 
L 895.717158 111.529223 
L 897.74828 111.529223 
L 898.763841 122.08699 
L 900.794963 122.08699 
L 901.810524 103.090771 
L 902.826085 120.875959 
L 903.841646 121.965885 
L 904.857207 103.921527 
L 905.872768 114.820804 
L 907.90389 114.820804 
L 908.919451 119.543825 
L 909.935012 111.187719 
L 910.950573 119.543825 
L 911.966134 111.187727 
L 912.981695 111.187727 
L 913.997256 119.543825 
L 917.043939 119.543825 
L 918.0595 115.261169 
L 919.075061 132.986267 
L 920.090622 132.986267 
L 921.106183 129.79399 
L 922.121744 138.521888 
L 923.137305 163.201487 
L 924.152867 163.262039 
L 925.168428 209.647049 
L 926.183989 175.372348 
L 927.19955 166.289616 
L 928.215111 158.758638 
L 929.230672 160.839982 
L 930.246233 170.410278 
L 931.261794 149.893469 
L 932.277355 149.893004 
L 933.292916 142.068999 
L 934.308477 164.47307 
L 935.324038 172.401689 
L 936.339599 154.610845 
L 937.35516 154.610845 
L 938.370721 180.193456 
L 939.386282 175.372348 
L 940.401843 180.193462 
L 941.417404 210.37114 
L 942.432965 223.813583 
L 943.448526 233.449755 
L 944.464087 247.575219 
L 945.479648 247.520723 
L 946.495209 205.64812 
L 947.51077 200.150039 
L 948.526331 172.432264 
L 949.541892 177.334218 
L 950.557453 177.334218 
L 951.573014 181.681819 
L 952.588575 229.868737 
L 953.604136 234.381038 
L 954.619697 234.381038 
L 955.635258 208.580025 
L 956.650819 208.580025 
L 957.66638 236.495498 
L 958.681941 260.144509 
L 960.713063 260.144509 
L 961.728624 256.862615 
L 962.744185 270.501245 
L 963.759746 272.254817 
L 964.775307 270.501245 
L 965.790868 278.309972 
L 966.806429 278.309972 
L 967.82199 250.922509 
L 968.837551 235.923891 
L 969.853112 236.287201 
L 970.868673 243.718076 
L 971.884234 229.868738 
L 972.899795 260.974065 
L 973.915356 260.974065 
L 974.930917 238.016553 
L 975.946478 248.0342 
L 976.962039 235.197273 
L 977.9776 212.865631 
L 978.993161 207.926601 
L 980.008722 224.260248 
L 981.024283 210.492243 
L 982.039844 224.260215 
L 983.055405 202.277821 
L 984.070966 222.552899 
L 985.086527 230.123053 
L 986.102088 230.110941 
L 987.117649 199.592965 
L 988.13321 199.592965 
L 989.148771 208.836371 
L 990.164333 224.365319 
L 992.195455 224.365813 
L 993.211016 237.066876 
L 994.226577 241.907125 
L 995.242138 241.907125 
L 996.257699 213.446461 
L 997.27326 217.07904 
L 998.288821 217.758428 
L 999.304382 213.446461 
L 1000.319943 112.327292 
L 1001.335504 164.20347 
L 1002.351065 163.262039 
L 1003.366626 135.144858 
L 1004.382187 151.13962 
L 1005.397748 153.332797 
L 1006.413309 136.913376 
L 1007.42887 130.2752 
L 1008.444431 316.716605 
L 1009.459992 344.916669 
L 1010.475553 306.163682 
L 1011.491114 306.163682 
L 1012.506675 305.662315 
L 1013.522236 283.275198 
L 1014.537797 298.534187 
L 1015.553358 298.534187 
L 1016.568919 273.362911 
L 1017.58448 260.041571 
L 1018.600041 225.025824 
L 1019.615602 225.024613 
L 1020.631163 237.134922 
L 1021.646724 242.817079 
L 1022.662285 231.372837 
L 1023.677846 214.125336 
L 1024.693407 214.125336 
L 1025.708968 241.979046 
L 1026.724529 214.027058 
L 1027.74009 212.680953 
L 1028.755651 211.740816 
L 1029.771212 243.045324 
L 1030.786773 254.949186 
L 1031.802334 254.949186 
L 1032.817895 267.6529 
L 1033.833456 254.089354 
L 1034.849017 254.68373 
L 1035.864578 254.68373 
L 1036.880139 236.4628 
L 1037.8957 248.094751 
L 1039.926822 248.094751 
L 1040.942383 219.049387 
L 1041.957944 235.923891 
L 1042.973505 219.049387 
L 1048.05131 219.049387 
L 1049.066871 241.44377 
L 1050.082432 225.069954 
L 1051.097993 189.668567 
L 1052.113554 198.381934 
L 1053.129115 187.482657 
L 1055.160238 175.372348 
L 1056.175799 189.753339 
L 1057.19136 176.583379 
L 1058.206921 175.372348 
L 1059.222482 194.627739 
L 1061.253604 194.627738 
L 1062.269165 176.246712 
L 1063.284726 189.898663 
L 1064.300287 174.161317 
L 1065.315848 162.838178 
L 1068.362531 162.838178 
L 1069.378092 194.748842 
L 1070.393653 193.53769 
L 1071.409214 164.121871 
L 1072.424775 152.362761 
L 1073.440336 181.974934 
L 1074.455897 181.974934 
L 1075.471458 192.32678 
L 1076.487019 177.79441 
L 1078.518141 177.79441 
L 1079.533702 157.736105 
L 1080.549263 191.688286 
L 1081.564824 191.688286 
L 1082.580385 210.492243 
L 1084.611507 210.492243 
L 1085.627068 187.482657 
L 1086.642629 186.271626 
L 1087.65819 174.161317 
L 1088.673751 171.739255 
L 1089.689312 163.555673 
L 1090.704873 181.427502 
L 1091.720434 164.222387 
L 1093.751556 164.222387 
L 1094.767117 187.482656 
L 1095.782678 187.482656 
L 1096.798239 163.625348 
L 1097.8138 156.293588 
L 1098.829361 139.298689 
L 1099.844922 149.9407 
L 1100.860483 139.319959 
L 1101.876044 174.295741 
L 1103.907166 174.295741 
L 1104.922727 140.252453 
L 1104.922727 140.252453 
" clip-path="url(#p561b89ab35)" style="fill: none; stroke: #808080; stroke-width: 1.5; stroke-linecap: square"/>
   </g>
   <g id="line2d_13">
    <path d="M 138.025864 603.115938 
L 138.10864 508.888469 
L 139.124201 508.466447 
L 140.139762 507.892503 
L 141.155324 507.822926 
L 143.186446 507.376591 
L 144.202007 507.013024 
L 147.24869 504.718915 
L 149.279812 503.332751 
L 154.357617 495.64839 
L 157.4043 494.704935 
L 159.435422 492.39553 
L 160.450983 490.432615 
L 162.482105 485.772811 
L 164.513227 480.456208 
L 165.528788 477.464613 
L 166.544349 475.572036 
L 169.591032 471.757027 
L 171.622154 468.94717 
L 172.637715 468.117058 
L 173.653276 467.862695 
L 174.668837 468.12562 
L 175.684398 468.14416 
L 176.699959 468.708565 
L 178.731081 468.293013 
L 179.746642 468.383007 
L 180.762203 467.481515 
L 183.808886 467.498685 
L 184.824447 467.171147 
L 186.855569 467.14721 
L 188.886691 464.304852 
L 190.917813 464.795148 
L 192.948935 465.089781 
L 194.980057 463.379741 
L 195.995618 462.935438 
L 198.02674 462.561639 
L 199.042301 462.76004 
L 201.073423 464.040701 
L 202.088984 463.581372 
L 203.104545 462.968545 
L 209.197912 463.230949 
L 212.244595 460.57416 
L 215.291278 457.545566 
L 217.3224 455.275082 
L 219.353522 452.753016 
L 221.384644 449.90718 
L 222.400205 449.523397 
L 224.431327 449.052547 
L 225.446888 448.743634 
L 228.493571 450.78997 
L 231.540254 452.550809 
L 235.602498 454.553823 
L 236.618059 454.967545 
L 237.63362 456.31456 
L 239.664742 459.354269 
L 241.695864 461.732181 
L 242.711425 462.742103 
L 246.773669 462.917019 
L 247.78923 461.740776 
L 249.820352 458.007966 
L 250.835913 458.226799 
L 251.851474 458.567862 
L 252.867035 458.769031 
L 254.898157 459.008708 
L 256.929279 458.580118 
L 257.94484 458.382854 
L 258.960401 458.85508 
L 259.975962 459.136003 
L 260.991523 459.244941 
L 262.007084 459.196785 
L 263.022645 458.396882 
L 264.038206 458.102918 
L 268.10045 454.666465 
L 271.147133 451.562948 
L 272.162695 450.452806 
L 274.193817 448.839019 
L 276.224939 444.326193 
L 277.2405 441.735496 
L 279.271622 435.637147 
L 280.287183 432.23084 
L 282.318305 424.344953 
L 283.333866 423.329607 
L 284.349427 422.940789 
L 285.364988 422.385621 
L 286.380549 422.021902 
L 288.411671 422.026323 
L 290.442793 421.884424 
L 291.458354 421.728769 
L 292.473915 429.267475 
L 293.489476 446.501069 
L 294.505037 453.961153 
L 295.520598 459.902249 
L 296.536159 467.674417 
L 297.55172 472.593376 
L 298.567281 485.260183 
L 299.582842 493.933227 
L 300.598403 504.175019 
L 302.629525 516.072227 
L 303.645086 521.523725 
L 305.676208 530.945224 
L 307.70733 539.303377 
L 308.722891 542.331012 
L 309.738452 546.315598 
L 310.754013 548.914271 
L 314.816257 563.79282 
L 316.847379 570.807448 
L 317.86294 572.617686 
L 319.894062 575.399767 
L 320.909623 576.540059 
L 321.925184 576.788461 
L 322.940745 576.688938 
L 323.956306 576.451426 
L 324.971867 575.727796 
L 325.987428 574.851017 
L 327.002989 574.586835 
L 328.01855 573.423949 
L 329.034111 572.071164 
L 330.049672 571.271772 
L 331.065233 569.073532 
L 332.080794 567.356931 
L 333.096355 564.183761 
L 334.111916 560.556423 
L 335.127477 558.485487 
L 336.143038 554.783202 
L 337.1586 550.532817 
L 338.174161 545.582233 
L 339.189722 539.574209 
L 340.205283 534.721143 
L 341.220844 534.913134 
L 342.236405 533.10583 
L 344.267527 533.219582 
L 345.283088 532.776774 
L 346.298649 532.833467 
L 347.31421 528.847743 
L 348.329771 526.79924 
L 349.345332 522.64066 
L 351.376454 519.605552 
L 353.407576 516.454236 
L 355.438698 513.213307 
L 356.454259 511.445608 
L 357.46982 510.370469 
L 358.485381 507.823088 
L 359.500942 506.596291 
L 361.532064 500.71206 
L 362.547625 496.55055 
L 363.563186 491.890519 
L 364.578747 486.300305 
L 365.594308 479.428714 
L 366.609869 476.553009 
L 367.62543 474.238601 
L 368.640991 471.58979 
L 369.656552 468.452222 
L 370.672113 466.842902 
L 371.687674 465.732713 
L 372.703235 464.424616 
L 374.734357 464.706813 
L 376.765479 464.746354 
L 379.812162 464.519996 
L 380.827723 464.378037 
L 383.874406 464.626633 
L 384.889967 467.267474 
L 386.921089 471.477736 
L 388.952211 474.811896 
L 390.983333 477.679329 
L 393.014455 480.210196 
L 397.076699 481.997688 
L 398.09226 482.407784 
L 402.154505 482.698768 
L 405.201188 484.347834 
L 407.23231 484.429247 
L 409.263432 484.562992 
L 410.278993 484.887103 
L 412.310115 484.91954 
L 414.341237 484.874224 
L 419.419042 484.123045 
L 423.481286 485.199704 
L 424.496847 485.431965 
L 430.590213 485.862316 
L 432.621335 485.904043 
L 434.652457 483.324042 
L 436.683579 480.483024 
L 438.714701 477.324866 
L 440.745823 473.762918 
L 441.761384 471.784866 
L 442.776945 470.721092 
L 444.808067 468.913288 
L 446.839189 466.589372 
L 450.901433 467.2615 
L 451.916994 466.03881 
L 452.932555 464.603985 
L 453.948116 462.942517 
L 454.963677 463.116136 
L 455.979238 463.40465 
L 458.01036 463.046892 
L 459.025921 463.045839 
L 460.041482 464.175565 
L 461.057043 464.512348 
L 462.072604 463.906804 
L 463.088165 463.949205 
L 464.103726 463.857351 
L 465.119287 464.286406 
L 466.134848 464.496025 
L 467.15041 464.568247 
L 468.165971 466.090682 
L 469.181532 467.341525 
L 472.228215 467.120243 
L 473.243776 466.985686 
L 476.290459 465.867476 
L 479.337142 464.502243 
L 481.368264 462.031472 
L 482.383825 460.676338 
L 483.399386 459.918258 
L 484.414947 458.960098 
L 485.430508 457.830782 
L 488.477191 453.880566 
L 489.492752 452.994574 
L 490.508313 451.878502 
L 491.523874 450.47816 
L 492.539435 450.435112 
L 493.554996 450.234032 
L 494.570557 449.886047 
L 495.586118 449.39967 
L 497.61724 448.035899 
L 498.632801 445.202207 
L 499.648362 441.747547 
L 501.679484 440.026879 
L 502.695045 439.613921 
L 504.726167 438.411843 
L 506.757289 434.500383 
L 507.77285 432.237936 
L 508.788411 431.895425 
L 509.803972 431.338772 
L 510.819533 428.703685 
L 511.835094 427.868595 
L 512.850655 426.8543 
L 514.881777 426.146176 
L 515.897338 425.702269 
L 517.92846 425.789563 
L 519.959582 423.067274 
L 521.990704 419.798613 
L 524.021826 416.447267 
L 526.052948 412.762487 
L 528.08407 408.951747 
L 530.115192 404.97201 
L 531.130753 402.750734 
L 535.192998 402.511644 
L 536.208559 402.736265 
L 538.239681 404.152267 
L 541.286364 406.232832 
L 542.301925 406.865122 
L 547.37973 407.491508 
L 549.410852 406.238172 
L 550.426413 406.1496 
L 552.457535 407.313826 
L 554.488657 408.290571 
L 558.550901 408.591606 
L 560.582023 408.495362 
L 566.675389 407.395027 
L 569.722072 406.971614 
L 570.737633 408.661392 
L 571.753194 409.430286 
L 572.768755 410.014971 
L 573.784316 410.444482 
L 574.799877 410.73955 
L 576.830999 411.200128 
L 577.84656 413.186312 
L 578.862121 414.679369 
L 579.877682 415.791018 
L 580.893243 415.817366 
L 581.908804 416.566121 
L 582.924365 417.054366 
L 584.955487 420.253807 
L 585.971048 419.896138 
L 586.986609 419.974251 
L 588.00217 419.381213 
L 590.033292 417.783263 
L 591.048853 416.77013 
L 592.064414 416.215822 
L 593.079975 415.504383 
L 594.095536 415.457044 
L 595.111097 416.138107 
L 596.126658 415.048724 
L 597.142219 414.386674 
L 598.157781 413.242641 
L 600.188903 408.941655 
L 602.220025 402.946056 
L 603.235586 399.58139 
L 605.266708 396.896159 
L 606.282269 395.377612 
L 607.29783 393.622674 
L 610.344513 386.96472 
L 611.360074 384.523774 
L 612.375635 381.622274 
L 614.406757 374.763306 
L 617.45344 365.400508 
L 618.469001 358.57418 
L 619.484562 357.136571 
L 621.515684 351.487059 
L 623.546806 344.905575 
L 625.577928 337.398074 
L 628.624611 333.741616 
L 629.640172 331.256607 
L 631.671294 328.103944 
L 633.702416 329.884182 
L 634.717977 329.471731 
L 635.733538 329.931849 
L 636.749099 330.779019 
L 637.76466 330.04399 
L 638.780221 331.414964 
L 639.795782 332.327305 
L 640.811343 331.722827 
L 641.826904 330.986503 
L 643.858026 334.917519 
L 644.873587 335.593416 
L 645.889148 336.667626 
L 646.904709 337.270795 
L 648.935831 342.903914 
L 649.951392 347.094586 
L 650.966953 350.176887 
L 652.998075 347.844048 
L 654.013636 347.137794 
L 655.029197 346.241124 
L 656.044758 343.881818 
L 657.060319 340.999321 
L 658.07588 339.371 
L 660.107002 337.407999 
L 661.122563 336.365623 
L 663.153686 333.399441 
L 665.184808 328.355576 
L 668.231491 324.396385 
L 671.278174 315.386324 
L 673.309296 309.525955 
L 675.340418 302.965745 
L 676.355979 299.409662 
L 678.387101 294.594971 
L 680.418223 285.256622 
L 682.449345 281.223126 
L 683.464906 280.009713 
L 684.480467 279.02806 
L 685.496028 282.20539 
L 686.511589 284.472333 
L 688.542711 285.428631 
L 690.573833 284.412486 
L 693.620516 286.990448 
L 694.636077 288.76721 
L 696.667199 297.068675 
L 697.68276 300.632886 
L 698.698321 299.710849 
L 699.713882 298.344172 
L 702.760565 299.54307 
L 703.776126 299.783642 
L 706.822809 298.413305 
L 708.853931 298.482301 
L 709.869492 298.399213 
L 710.885053 297.063201 
L 712.916175 297.244895 
L 715.962858 298.280255 
L 716.978419 298.412727 
L 719.009541 298.194856 
L 720.025102 298.04487 
L 725.102907 298.732949 
L 727.134029 298.559093 
L 729.165152 297.726494 
L 730.180713 297.588876 
L 731.196274 297.671002 
L 733.227396 297.329424 
L 735.258518 293.099832 
L 736.274079 293.503262 
L 737.28964 293.692495 
L 739.320762 293.402041 
L 741.351884 292.736801 
L 742.367445 292.392209 
L 743.383006 291.05452 
L 744.398567 287.148421 
L 745.414128 282.687257 
L 746.429689 277.673763 
L 748.460811 274.208273 
L 749.476372 273.204175 
L 750.491933 271.913789 
L 752.523055 268.336613 
L 756.585299 260.583097 
L 757.60086 258.184445 
L 761.663104 256.990188 
L 763.694226 251.222508 
L 764.709787 247.926502 
L 765.725348 244.247651 
L 766.740909 244.665441 
L 769.787592 245.531585 
L 772.834275 244.363576 
L 773.849836 243.93248 
L 774.865397 242.123622 
L 775.880958 241.767413 
L 777.91208 237.601088 
L 778.927641 237.136287 
L 779.943202 236.431554 
L 780.958763 237.028129 
L 781.974324 236.926878 
L 782.989885 237.58611 
L 784.005446 238.460918 
L 785.021007 239.728514 
L 786.036568 240.788392 
L 787.052129 241.57102 
L 788.06769 241.814185 
L 789.083251 241.628552 
L 790.098812 242.240318 
L 791.114373 243.071226 
L 793.145495 244.50279 
L 795.176618 244.610835 
L 797.20774 244.566686 
L 800.254423 244.397488 
L 801.269984 244.202329 
L 802.285545 243.440764 
L 803.301106 242.872281 
L 804.316667 241.050342 
L 805.332228 238.906426 
L 806.347789 239.398675 
L 807.36335 238.971051 
L 808.378911 240.166958 
L 809.394472 242.870175 
L 810.410033 244.52363 
L 811.425594 245.701479 
L 812.441155 245.718335 
L 814.472277 242.980399 
L 816.503399 237.412972 
L 818.534521 230.751141 
L 819.550082 229.082267 
L 820.565643 228.057886 
L 821.581204 226.211393 
L 822.596765 224.727215 
L 823.612326 223.984072 
L 824.627887 222.86945 
L 825.643448 221.404088 
L 827.67457 216.897273 
L 828.690131 215.639865 
L 829.705692 215.255144 
L 830.721253 214.533924 
L 833.767936 211.927021 
L 836.814619 208.410246 
L 837.83018 204.751609 
L 838.845741 203.376436 
L 840.876863 201.227039 
L 841.892424 200.005771 
L 842.907985 197.820942 
L 844.939107 192.45745 
L 846.970229 182.969504 
L 847.98579 177.846575 
L 849.001351 175.795146 
L 850.016912 173.354899 
L 851.032473 168.553292 
L 853.063595 161.540982 
L 854.079156 156.509266 
L 855.094717 155.28377 
L 856.110278 153.239926 
L 857.125839 153.768765 
L 858.1414 154.993789 
L 860.172523 158.688406 
L 861.188084 158.518188 
L 862.203645 157.064267 
L 863.219206 156.946312 
L 866.265889 153.849299 
L 868.297011 151.4949 
L 869.312572 151.399538 
L 870.328133 150.620345 
L 872.359255 150.499777 
L 873.374816 150.467411 
L 877.43706 153.32357 
L 879.468182 156.906276 
L 880.483743 158.525589 
L 882.514865 158.520717 
L 883.530426 158.188307 
L 885.561548 157.984727 
L 887.59267 157.681803 
L 890.639353 157.565533 
L 892.670475 156.801763 
L 893.686036 156.348593 
L 895.717158 156.633273 
L 897.74828 155.787165 
L 899.779402 155.623729 
L 900.794963 156.16631 
L 901.810524 156.351704 
L 902.826085 156.034164 
L 903.841646 156.069743 
L 904.857207 155.361925 
L 906.888329 153.129136 
L 908.919451 148.812591 
L 909.935012 148.823116 
L 911.966134 145.049756 
L 916.028378 144.773229 
L 919.075061 146.155384 
L 920.090622 146.617624 
L 921.106183 146.902245 
L 923.137305 151.81451 
L 924.152867 160.78287 
L 926.183989 167.21061 
L 928.215111 167.993713 
L 929.230672 168.56184 
L 930.246233 169.892298 
L 931.261794 170.947873 
L 932.277355 171.535942 
L 933.292916 173.610545 
L 935.324038 178.807434 
L 937.35516 180.888052 
L 939.386282 185.737426 
L 940.401843 191.191741 
L 941.417404 195.554337 
L 942.432965 205.901793 
L 944.464087 222.298325 
L 945.479648 225.530187 
L 946.495209 227.999591 
L 948.526331 229.633739 
L 949.541892 230.118174 
L 950.557453 230.4597 
L 951.573014 232.450069 
L 953.604136 240.486865 
L 954.619697 244.328314 
L 956.650819 247.147831 
L 957.66638 252.917367 
L 959.697502 262.289621 
L 960.713063 268.867889 
L 962.744185 277.615402 
L 963.759746 281.479626 
L 964.775307 284.901016 
L 966.806429 293.026126 
L 967.82199 293.547864 
L 968.837551 293.833224 
L 969.853112 293.424246 
L 970.868673 293.84115 
L 971.884234 294.392561 
L 973.915356 299.105674 
L 974.930917 300.461904 
L 975.946478 300.724298 
L 976.962039 300.796781 
L 977.9776 300.191935 
L 978.993161 299.175084 
L 980.008722 297.785 
L 981.024283 295.970169 
L 982.039844 295.031388 
L 983.055405 294.511251 
L 984.070966 293.810623 
L 985.086527 292.246054 
L 986.102088 290.260234 
L 988.13321 288.597249 
L 990.164333 288.514184 
L 991.179894 287.800271 
L 992.195455 287.427496 
L 993.211016 287.180793 
L 994.226577 287.702751 
L 995.242138 287.560768 
L 998.288821 283.370165 
L 999.304382 283.607061 
L 1000.319943 289.507375 
L 1001.335504 291.037004 
L 1002.351065 293.124334 
L 1003.366626 296.052622 
L 1005.397748 299.124314 
L 1006.413309 300.298592 
L 1007.42887 305.365864 
L 1008.444431 311.294019 
L 1009.459992 315.066215 
L 1010.475553 317.879008 
L 1013.522236 324.921982 
L 1016.568919 329.474175 
L 1017.58448 329.221703 
L 1019.615602 329.019591 
L 1020.631163 329.207368 
L 1021.646724 327.823722 
L 1022.662285 326.719089 
L 1023.677846 325.856606 
L 1024.693407 325.389845 
L 1025.708968 325.631577 
L 1028.755651 325.750069 
L 1029.771212 326.745979 
L 1030.786773 327.938011 
L 1031.802334 329.650812 
L 1032.817895 330.710363 
L 1033.833456 331.459999 
L 1034.849017 332.470613 
L 1035.864578 332.846701 
L 1037.8957 334.202822 
L 1039.926822 335.284961 
L 1040.942383 335.142558 
L 1041.957944 335.642405 
L 1042.973505 335.23594 
L 1047.035749 335.321777 
L 1048.05131 334.831909 
L 1049.066871 331.757793 
L 1050.082432 330.733306 
L 1051.097993 329.227989 
L 1052.113554 326.514726 
L 1054.144676 323.595599 
L 1056.175799 314.921382 
L 1059.222482 299.192851 
L 1060.238043 294.422787 
L 1061.253604 288.842199 
L 1064.300287 274.845634 
L 1065.315848 272.362095 
L 1066.331409 272.982928 
L 1067.34697 273.431474 
L 1068.362531 273.722291 
L 1069.378092 272.585239 
L 1070.393653 272.980436 
L 1071.409214 273.1852 
L 1072.424775 273.812847 
L 1073.440336 273.490757 
L 1074.455897 271.713943 
L 1075.471458 271.357237 
L 1076.487019 271.690841 
L 1077.50258 271.339165 
L 1079.533702 265.669748 
L 1080.549263 260.814021 
L 1082.580385 254.785738 
L 1083.595946 251.042702 
L 1084.611507 248.698304 
L 1086.642629 241.593823 
L 1088.673751 232.811227 
L 1089.689312 231.04598 
L 1090.704873 224.517764 
L 1092.735995 220.225016 
L 1094.767117 215.75287 
L 1095.782678 213.328114 
L 1096.798239 210.473585 
L 1097.8138 209.385826 
L 1099.844922 209.265588 
L 1101.876044 208.890235 
L 1102.891605 208.579777 
L 1103.907166 207.544443 
L 1104.922727 207.495725 
L 1104.922727 207.495725 
" clip-path="url(#p561b89ab35)" style="fill: none; stroke: #ff0000; stroke-width: 1.5; stroke-linecap: square"/>
   </g>
   <g id="line2d_14">
    <path d="M 137.998158 603.115938 
L 138.10864 473.499676 
L 140.139762 472.664749 
L 144.202007 468.988009 
L 146.233129 467.763606 
L 148.264251 466.059837 
L 151.310934 463.464169 
L 154.357617 461.018795 
L 159.435422 456.079226 
L 160.450983 454.857605 
L 165.528788 451.099121 
L 166.544349 450.55842 
L 171.622154 448.614918 
L 173.653276 448.100608 
L 175.684398 446.136394 
L 176.699959 445.373193 
L 178.731081 444.434028 
L 179.746642 444.194541 
L 180.762203 443.536644 
L 184.824447 442.27594 
L 186.855569 442.300495 
L 188.886691 440.866523 
L 192.948935 439.079496 
L 193.964496 438.279522 
L 194.980057 437.838197 
L 195.995618 437.523021 
L 198.02674 437.144967 
L 199.042301 437.203197 
L 201.073423 437.545364 
L 203.104545 437.047125 
L 209.197912 437.597375 
L 221.384644 432.484136 
L 222.400205 432.310331 
L 233.571376 435.91509 
L 236.618059 435.043295 
L 238.649181 434.011743 
L 243.726986 431.716161 
L 246.773669 430.426099 
L 248.804791 428.538917 
L 251.851474 425.630618 
L 257.94484 420.216969 
L 262.007084 415.622927 
L 263.022645 415.067417 
L 264.038206 414.946891 
L 266.069328 413.91216 
L 267.084889 413.452949 
L 272.162695 409.90552 
L 274.193817 407.587484 
L 277.2405 403.384115 
L 278.256061 402.428971 
L 280.287183 399.626724 
L 281.302744 398.562859 
L 282.318305 396.999594 
L 283.333866 396.316749 
L 285.364988 394.248423 
L 286.380549 394.010739 
L 290.442793 392.144407 
L 291.458354 392.031167 
L 292.473915 393.141116 
L 293.489476 395.379439 
L 297.55172 401.492706 
L 301.613964 412.016463 
L 308.722891 428.558768 
L 309.738452 431.268723 
L 311.769574 435.75632 
L 312.785135 437.43829 
L 316.847379 446.415665 
L 324.971867 461.506426 
L 325.987428 463.208977 
L 327.002989 464.465547 
L 329.034111 467.870648 
L 330.049672 469.23594 
L 331.065233 471.100631 
L 332.080794 472.70205 
L 334.111916 476.355326 
L 335.127477 477.602725 
L 340.205283 485.44699 
L 341.220844 485.234692 
L 342.236405 483.894019 
L 346.298649 481.561178 
L 347.31421 479.859475 
L 348.329771 478.601935 
L 349.345332 476.967764 
L 354.423137 471.984443 
L 356.454259 470.081941 
L 357.46982 469.343605 
L 358.485381 468.266206 
L 359.500942 467.52812 
L 362.547625 464.169772 
L 365.594308 460.512701 
L 367.62543 459.421468 
L 369.656552 458.463631 
L 370.672113 458.240247 
L 372.703235 457.185421 
L 380.827723 455.080017 
L 383.874406 454.720833 
L 387.93665 456.8388 
L 393.014455 459.121522 
L 398.09226 460.471751 
L 402.154505 459.735488 
L 405.201188 460.697004 
L 407.23231 460.410642 
L 409.263432 460.02396 
L 410.278993 459.663261 
L 411.294554 459.451367 
L 414.341237 459.249674 
L 418.403481 458.453282 
L 419.419042 457.818828 
L 425.512408 456.57729 
L 430.590213 455.946343 
L 432.621335 456.140536 
L 441.761384 451.252816 
L 442.776945 450.897076 
L 446.839189 447.768579 
L 448.870311 447.112554 
L 450.901433 447.309296 
L 453.948116 444.281718 
L 455.979238 443.190706 
L 458.01036 442.712877 
L 459.025921 442.641321 
L 461.057043 441.068852 
L 462.072604 440.691512 
L 464.103726 439.075148 
L 468.165971 435.199684 
L 469.181532 434.307989 
L 474.259337 432.104459 
L 479.337142 429.486847 
L 482.383825 427.123133 
L 488.477191 419.678737 
L 491.523874 414.970074 
L 497.61724 408.383763 
L 498.632801 406.859661 
L 499.648362 405.75135 
L 501.679484 404.740714 
L 504.726167 401.647876 
L 507.77285 397.785743 
L 509.803972 396.198071 
L 510.819533 394.923009 
L 511.835094 394.078789 
L 512.850655 393.597529 
L 515.897338 391.511436 
L 517.92846 390.463132 
L 521.990704 386.49003 
L 529.099631 383.156485 
L 531.130753 382.277433 
L 536.208559 382.267236 
L 537.22412 382.502825 
L 542.301925 384.483327 
L 547.37973 385.327111 
L 549.410852 384.833042 
L 550.426413 384.808536 
L 554.488657 386.813026 
L 559.566462 386.660357 
L 560.582023 386.704339 
L 561.597584 386.385362 
L 563.628706 386.653415 
L 566.675389 387.159001 
L 568.706511 387.316334 
L 569.722072 387.864779 
L 570.737633 387.489309 
L 576.830999 382.991843 
L 579.877682 379.192233 
L 580.893243 378.174009 
L 582.924365 375.564699 
L 583.939926 373.919715 
L 584.955487 372.001846 
L 585.971048 370.540712 
L 588.00217 367.309554 
L 594.095536 357.928356 
L 595.111097 355.838142 
L 596.126658 354.302983 
L 599.173342 348.829498 
L 600.188903 346.736565 
L 603.235586 341.364502 
L 606.282269 337.452177 
L 608.313391 335.373891 
L 610.344513 332.49108 
L 611.360074 330.985591 
L 612.375635 329.238704 
L 613.391196 327.860627 
L 614.406757 326.11374 
L 616.437879 323.467597 
L 617.45344 321.721038 
L 618.469001 319.504701 
L 619.484562 318.212279 
L 621.515684 316.270138 
L 625.577928 311.604137 
L 627.60905 310.292187 
L 628.624611 309.378212 
L 629.640172 308.120708 
L 631.671294 306.966822 
L 632.686855 306.150954 
L 633.702416 305.565219 
L 634.717977 304.492094 
L 635.733538 303.590661 
L 636.749099 302.2777 
L 637.76466 301.317402 
L 639.795782 298.50564 
L 641.826904 296.414627 
L 642.842465 295.145467 
L 643.858026 294.218701 
L 644.873587 292.736878 
L 646.904709 290.243352 
L 648.935831 286.453942 
L 650.966953 281.018655 
L 652.998075 278.15444 
L 655.029197 274.615225 
L 658.07588 271.639355 
L 660.107002 268.127113 
L 661.122563 266.703014 
L 662.138124 264.385036 
L 663.153686 263.240057 
L 665.184808 260.542775 
L 667.21593 258.692468 
L 668.231491 257.461909 
L 671.278174 252.280654 
L 676.355979 245.544295 
L 678.387101 243.178395 
L 680.418223 239.867152 
L 681.433784 238.790784 
L 682.449345 238.165388 
L 684.480467 237.583967 
L 685.496028 238.270773 
L 686.511589 238.694633 
L 688.542711 239.071718 
L 690.573833 238.765899 
L 693.620516 239.992169 
L 694.636077 240.67911 
L 695.651638 241.92347 
L 699.713882 249.492189 
L 701.745004 250.286928 
L 703.776126 251.858217 
L 706.822809 251.256319 
L 708.853931 252.991565 
L 709.869492 253.076895 
L 710.885053 253.687295 
L 712.916175 253.246607 
L 715.962858 254.336161 
L 716.978419 255.004751 
L 721.040663 255.111854 
L 725.102907 254.531568 
L 726.118468 254.733407 
L 727.134029 254.806573 
L 729.165152 255.714846 
L 730.180713 255.788013 
L 731.196274 255.558674 
L 733.227396 254.549482 
L 734.242957 253.087966 
L 735.258518 251.30225 
L 742.367445 244.313593 
L 743.383006 242.980769 
L 746.429689 236.762075 
L 748.460811 233.923217 
L 750.491933 231.52588 
L 754.554177 228.074947 
L 756.585299 226.976551 
L 757.60086 226.03281 
L 760.647543 224.916996 
L 761.663104 224.527322 
L 765.725348 220.84377 
L 768.772031 221.199389 
L 769.787592 221.300307 
L 773.849836 219.884245 
L 774.865397 219.202242 
L 775.880958 218.901209 
L 777.91208 217.537203 
L 778.927641 217.211738 
L 779.943202 216.383847 
L 781.974324 214.119346 
L 782.989885 213.292846 
L 784.005446 212.700828 
L 788.06769 209.755626 
L 789.083251 209.609092 
L 792.129934 207.068903 
L 793.145495 206.427904 
L 796.192179 205.385271 
L 799.238862 205.111349 
L 801.269984 202.964393 
L 802.285545 202.284286 
L 803.301106 201.350783 
L 806.347789 197.67369 
L 807.36335 196.602729 
L 808.378911 195.04166 
L 812.441155 187.240858 
L 813.456716 186.122096 
L 814.472277 184.734457 
L 818.534521 177.266438 
L 819.550082 175.854367 
L 820.565643 174.028552 
L 821.581204 172.490332 
L 822.596765 170.664517 
L 826.659009 162.105781 
L 827.67457 160.075967 
L 828.690131 158.3834 
L 831.736814 154.179357 
L 833.767936 151.471063 
L 834.783497 150.61552 
L 835.799058 149.583369 
L 836.814619 148.015714 
L 837.83018 145.926888 
L 838.845741 144.984624 
L 841.892424 141.397356 
L 849.001351 129.631264 
L 850.016912 128.494358 
L 851.032473 126.979472 
L 852.048034 125.899636 
L 853.063595 125.067052 
L 854.079156 124.068684 
L 856.110278 123.32325 
L 857.125839 123.472091 
L 859.156962 124.733491 
L 860.172523 125.47325 
L 861.188084 125.304942 
L 862.203645 125.007873 
L 863.219206 124.979682 
L 868.297011 122.612318 
L 869.312572 122.523585 
L 870.328133 122.147257 
L 871.343694 122.058523 
L 873.374816 122.590194 
L 874.390377 123.232357 
L 877.43706 124.729822 
L 880.483743 127.172017 
L 882.514865 127.52483 
L 883.530426 127.224192 
L 884.545987 127.100162 
L 886.577109 127.736811 
L 887.59267 127.46217 
L 890.639353 127.635953 
L 891.654914 127.897738 
L 893.686036 128.759588 
L 895.717158 128.259129 
L 899.779402 128.95954 
L 900.794963 128.53351 
L 901.810524 127.860227 
L 902.826085 127.582699 
L 903.841646 126.926724 
L 904.857207 126.046229 
L 906.888329 124.739355 
L 908.919451 123.176721 
L 909.935012 122.96305 
L 911.966134 121.354267 
L 912.981695 121.101969 
L 916.028378 120.915672 
L 921.106183 122.073039 
L 922.121744 122.767616 
L 923.137305 123.272212 
L 924.152867 124.59366 
L 926.183989 126.094834 
L 929.230672 126.43833 
L 931.261794 127.633643 
L 932.277355 128.073045 
L 934.308477 129.952994 
L 935.324038 131.024328 
L 937.35516 132.61685 
L 939.386282 135.074436 
L 940.401843 136.941608 
L 941.417404 138.517462 
L 943.448526 143.799045 
L 944.464087 146.632201 
L 946.495209 150.480655 
L 948.526331 152.578375 
L 951.573014 157.28656 
L 954.619697 165.213211 
L 956.650819 169.119845 
L 958.681941 175.152293 
L 959.697502 178.255559 
L 961.728624 185.179123 
L 966.806429 200.696137 
L 969.853112 207.070095 
L 971.884234 210.031722 
L 972.899795 211.250536 
L 973.915356 213.033906 
L 976.962039 217.767959 
L 980.008722 220.961725 
L 981.024283 222.674042 
L 982.039844 223.461641 
L 983.055405 224.506458 
L 984.070966 225.072944 
L 985.086527 226.646115 
L 986.102088 227.583242 
L 988.13321 228.592435 
L 989.148771 228.651222 
L 990.164333 229.155707 
L 991.179894 228.672168 
L 992.195455 228.424916 
L 993.211016 228.307966 
L 994.226577 229.02804 
L 995.242138 229.316436 
L 998.288821 231.957365 
L 999.304382 231.886973 
L 1002.351065 227.156643 
L 1003.366626 225.089222 
L 1005.397748 222.787254 
L 1006.413309 220.011975 
L 1007.42887 221.19056 
L 1008.444431 222.568865 
L 1010.475553 224.133697 
L 1013.522236 226.117517 
L 1015.553358 226.960193 
L 1016.568919 227.740173 
L 1017.58448 227.51313 
L 1019.615602 227.311291 
L 1020.631163 227.46267 
L 1021.646724 226.484611 
L 1024.693407 224.699779 
L 1025.708968 224.854604 
L 1027.74009 224.995049 
L 1028.755651 225.248129 
L 1029.771212 225.887483 
L 1032.817895 229.105141 
L 1033.833456 229.604438 
L 1034.849017 230.752163 
L 1035.864578 231.524195 
L 1036.880139 232.534649 
L 1037.8957 233.352532 
L 1039.926822 234.341258 
L 1040.942383 234.110809 
L 1041.957944 234.423416 
L 1042.973505 233.947213 
L 1046.020188 234.190121 
L 1047.035749 234.217016 
L 1048.05131 235.156473 
L 1049.066871 236.868133 
L 1051.097993 238.357669 
L 1052.113554 239.44804 
L 1054.144676 240.669113 
L 1055.160238 242.104815 
L 1056.175799 239.459747 
L 1058.206921 233.226138 
L 1062.269165 223.79362 
L 1064.300287 218.13962 
L 1065.315848 215.837021 
L 1068.362531 211.950344 
L 1069.378092 211.067301 
L 1070.393653 210.027605 
L 1071.409214 208.356332 
L 1072.424775 207.069612 
L 1073.440336 206.399812 
L 1074.455897 205.351851 
L 1075.471458 204.927806 
L 1076.487019 203.690099 
L 1077.50258 202.982882 
L 1078.518141 201.678249 
L 1079.533702 199.652976 
L 1080.549263 198.024967 
L 1082.580385 196.20842 
L 1083.595946 194.326761 
L 1084.611507 193.32539 
L 1085.627068 192.062638 
L 1086.642629 190.130034 
L 1088.673751 186.999015 
L 1089.689312 186.063847 
L 1090.704873 184.120369 
L 1092.735995 181.835911 
L 1095.782678 179.86299 
L 1096.798239 178.700754 
L 1098.829361 176.108801 
L 1100.860483 174.494093 
L 1102.891605 174.146477 
L 1103.907166 173.697538 
L 1104.922727 172.666269 
L 1104.922727 172.666269 
" clip-path="url(#p561b89ab35)" style="fill: none; stroke: #000000; stroke-width: 1.5; stroke-linecap: square"/>
   </g>
   <g id="line2d_15">
    <path d="M 137.97205 603.115938 
L 138.10864 438.110883 
L 140.139762 437.436995 
L 142.170885 433.994758 
L 144.202007 430.962993 
L 145.217568 430.610316 
L 146.233129 430.068294 
L 147.24869 429.230677 
L 149.279812 426.957005 
L 152.326495 426.392387 
L 154.357617 426.3892 
L 156.388739 423.288367 
L 157.4043 421.806806 
L 159.435422 419.762922 
L 160.450983 419.282596 
L 161.466544 420.039302 
L 162.482105 420.935611 
L 163.497666 421.994065 
L 164.513227 423.245427 
L 165.528788 424.733628 
L 166.544349 425.544805 
L 168.575471 426.463497 
L 170.606593 427.630878 
L 171.622154 428.282665 
L 172.637715 428.608181 
L 173.653276 428.338521 
L 175.684398 424.128629 
L 176.699959 422.03782 
L 178.731081 420.575042 
L 179.746642 420.006076 
L 180.762203 419.591772 
L 183.808886 417.935844 
L 184.824447 417.380733 
L 188.886691 417.428195 
L 191.933374 414.087402 
L 192.948935 413.069211 
L 193.964496 412.377067 
L 195.995618 412.110604 
L 198.02674 411.728295 
L 199.042301 411.646354 
L 201.073423 411.050027 
L 205.135667 411.428157 
L 209.197912 411.963801 
L 211.229034 411.992681 
L 213.260156 412.176278 
L 215.291278 412.535945 
L 217.3224 413.102016 
L 219.353522 413.919669 
L 221.384644 415.061092 
L 222.400205 415.097265 
L 225.446888 417.861775 
L 228.493571 417.774728 
L 231.540254 417.973178 
L 233.571376 418.244808 
L 236.618059 415.119045 
L 240.680303 405.516436 
L 242.711425 401.486987 
L 245.758108 398.857832 
L 246.773669 397.935178 
L 247.78923 397.337093 
L 248.804791 397.12775 
L 249.820352 397.069835 
L 251.851474 392.693375 
L 254.898157 386.692363 
L 256.929279 383.524595 
L 257.94484 382.051085 
L 259.975962 376.703893 
L 262.007084 372.049069 
L 263.022645 371.737952 
L 264.038206 371.790864 
L 265.053767 371.482078 
L 267.084889 371.300039 
L 269.116011 370.479139 
L 272.162695 369.358235 
L 274.193817 366.33595 
L 275.209378 365.684007 
L 276.224939 365.244282 
L 277.2405 365.032733 
L 278.256061 366.140216 
L 279.271622 366.418548 
L 280.287183 367.022608 
L 281.302744 368.875899 
L 282.318305 369.654235 
L 283.333866 369.303891 
L 285.364988 366.111224 
L 286.380549 365.999576 
L 289.427232 363.249106 
L 290.442793 362.404389 
L 291.458354 362.333565 
L 292.473915 357.014757 
L 293.489476 344.257809 
L 294.505037 339.872895 
L 295.520598 336.75488 
L 296.536159 332.527473 
L 297.55172 330.392035 
L 298.567281 323.018846 
L 299.582842 319.499747 
L 300.598403 315.165162 
L 301.613964 313.731099 
L 302.629525 312.653443 
L 303.645086 312.060319 
L 304.660647 311.76701 
L 305.676208 311.721551 
L 306.691769 311.908523 
L 307.70733 313.072376 
L 308.722891 314.786524 
L 309.738452 316.221849 
L 310.754013 318.364458 
L 311.769574 318.811254 
L 312.785135 318.698177 
L 315.831818 320.618712 
L 316.847379 322.023881 
L 318.878501 326.126047 
L 319.894062 328.352547 
L 320.909623 331.006418 
L 323.956306 343.162574 
L 325.987428 351.566936 
L 327.002989 354.344259 
L 329.034111 363.670131 
L 330.049672 367.200108 
L 331.065233 373.127731 
L 332.080794 378.047169 
L 334.111916 392.15423 
L 335.127477 396.719964 
L 337.1586 411.075099 
L 338.174161 419.226917 
L 339.189722 428.630699 
L 340.205283 436.172838 
L 341.220844 435.55625 
L 342.236405 434.682209 
L 345.283088 431.23889 
L 346.298649 430.288888 
L 347.31421 430.871207 
L 348.329771 430.404629 
L 349.345332 431.294867 
L 351.376454 430.222216 
L 354.423137 429.087679 
L 357.46982 428.316742 
L 358.485381 428.709323 
L 359.500942 428.459949 
L 360.516503 429.138291 
L 361.532064 430.034582 
L 362.547625 431.788994 
L 363.563186 434.041928 
L 364.578747 437.178619 
L 365.594308 441.596687 
L 366.609869 443.269116 
L 367.62543 444.604335 
L 368.640991 446.273957 
L 369.656552 448.475041 
L 370.672113 449.637592 
L 371.687674 449.692955 
L 372.703235 449.946227 
L 374.734357 448.600943 
L 377.78104 447.027739 
L 380.827723 445.781997 
L 383.874406 444.815034 
L 384.889967 443.281808 
L 385.905528 442.150817 
L 387.93665 440.462436 
L 389.967772 439.209871 
L 391.998894 438.348539 
L 393.014455 438.032849 
L 397.076699 438.405722 
L 398.09226 438.535717 
L 402.154505 436.772208 
L 405.201188 437.046174 
L 406.216749 436.845604 
L 409.263432 435.484929 
L 410.278993 434.439419 
L 411.294554 433.961717 
L 415.356798 433.4017 
L 418.403481 432.729931 
L 419.419042 431.514611 
L 423.481286 428.66136 
L 424.496847 427.974963 
L 430.590213 426.030369 
L 434.652457 426.783029 
L 436.683579 427.450045 
L 438.714701 428.4342 
L 440.745823 429.827192 
L 441.761384 430.720765 
L 442.776945 431.073059 
L 444.808067 429.752367 
L 445.823628 429.282719 
L 446.839189 428.947786 
L 448.870311 427.279248 
L 450.901433 427.357091 
L 451.916994 426.561397 
L 452.932555 425.977837 
L 453.948116 425.62092 
L 455.979238 422.976762 
L 458.01036 422.378862 
L 459.025921 422.236804 
L 460.041482 419.628964 
L 461.057043 417.625356 
L 462.072604 417.476221 
L 464.103726 414.292946 
L 466.134848 409.654658 
L 467.15041 407.614512 
L 469.181532 401.274454 
L 472.228215 398.939827 
L 476.290459 396.28845 
L 479.337142 394.47145 
L 481.368264 393.790604 
L 482.383825 393.569929 
L 483.399386 391.896212 
L 485.430508 389.154703 
L 487.46163 387.059852 
L 488.477191 385.476907 
L 490.508313 381.211823 
L 491.523874 379.461988 
L 493.554996 375.315242 
L 495.586118 371.758731 
L 497.61724 368.731628 
L 498.632801 368.517115 
L 499.648362 369.755153 
L 501.679484 369.454548 
L 503.710606 366.283765 
L 504.726167 364.883909 
L 505.741728 364.166998 
L 506.757289 363.645859 
L 507.77285 363.33355 
L 509.803972 361.057371 
L 510.819533 361.142333 
L 511.835094 360.288983 
L 512.850655 360.340757 
L 514.881777 358.267424 
L 515.897338 357.320602 
L 517.92846 355.136702 
L 519.959582 353.899545 
L 520.975143 353.459311 
L 521.990704 353.181446 
L 524.021826 354.569197 
L 526.052948 356.290383 
L 530.115192 360.461909 
L 531.130753 361.804133 
L 536.208559 361.798207 
L 537.22412 361.619726 
L 539.255242 361.771031 
L 541.286364 361.996163 
L 543.317486 362.303402 
L 548.395291 363.286404 
L 550.426413 363.467473 
L 552.457535 364.307736 
L 554.488657 365.335481 
L 558.550901 364.641144 
L 560.582023 364.913317 
L 561.597584 364.440889 
L 562.613145 364.722583 
L 564.644267 365.776759 
L 565.659828 366.593377 
L 568.706511 367.595509 
L 569.722072 368.757943 
L 571.753194 364.07491 
L 573.784316 360.113873 
L 576.830999 354.783557 
L 578.862121 346.238171 
L 579.877682 342.593448 
L 580.893243 340.530652 
L 582.924365 334.075031 
L 583.939926 329.279247 
L 584.955487 323.749885 
L 585.971048 321.185287 
L 586.986609 317.726423 
L 590.033292 310.519313 
L 593.079975 303.893584 
L 594.095536 300.399667 
L 595.111097 295.538176 
L 596.126658 293.557242 
L 597.142219 290.559463 
L 598.157781 288.282454 
L 599.173342 286.599012 
L 600.188903 284.531475 
L 601.204464 283.830931 
L 602.220025 283.364324 
L 603.235586 283.147614 
L 605.266708 280.616411 
L 606.282269 279.526742 
L 607.29783 279.187949 
L 608.313391 279.293808 
L 612.375635 276.855134 
L 613.391196 277.534187 
L 614.406757 277.464174 
L 615.422318 277.8648 
L 616.437879 278.486602 
L 617.45344 278.041568 
L 618.469001 280.435222 
L 619.484562 279.287986 
L 620.500123 280.073509 
L 621.515684 281.053218 
L 622.531245 281.820867 
L 623.546806 282.891498 
L 625.577928 285.810201 
L 627.60905 285.773853 
L 628.624611 285.014809 
L 629.640172 284.984809 
L 631.671294 285.829701 
L 632.686855 283.307352 
L 633.702416 281.246256 
L 634.717977 279.512457 
L 635.733538 277.249473 
L 636.749099 273.776381 
L 637.76466 272.590813 
L 639.795782 264.683976 
L 641.826904 261.842752 
L 642.842465 257.251644 
L 645.889148 246.431999 
L 646.904709 243.21591 
L 648.935831 230.00397 
L 649.951392 220.378011 
L 650.966953 211.860422 
L 652.998075 208.464832 
L 655.029197 202.989327 
L 656.044758 203.265617 
L 657.060319 203.847919 
L 658.07588 203.907711 
L 660.107002 198.846228 
L 661.122563 197.040405 
L 662.138124 193.858051 
L 663.153686 193.080673 
L 664.169247 192.842644 
L 665.184808 192.729974 
L 667.21593 191.660628 
L 668.231491 190.527433 
L 669.247052 190.01992 
L 670.262613 189.739806 
L 671.278174 189.174984 
L 672.293735 189.300106 
L 673.309296 189.585715 
L 674.324857 190.045457 
L 675.340418 190.696286 
L 676.355979 191.678928 
L 677.37154 192.02413 
L 678.387101 191.761819 
L 679.402662 192.913119 
L 680.418223 194.477682 
L 681.433784 194.390771 
L 682.449345 195.10765 
L 684.480467 196.139874 
L 685.496028 194.336156 
L 686.511589 192.916933 
L 688.542711 192.714805 
L 690.573833 193.119313 
L 693.620516 192.993889 
L 694.636077 192.59101 
L 695.651638 190.700971 
L 696.667199 190.589934 
L 697.68276 190.864236 
L 699.713882 200.640206 
L 701.745004 201.327823 
L 703.776126 203.932791 
L 706.822809 204.099332 
L 708.853931 207.50083 
L 709.869492 207.754578 
L 710.885053 210.311389 
L 712.916175 209.24832 
L 715.962858 210.392067 
L 716.978419 211.596775 
L 717.99398 211.751907 
L 720.025102 212.431136 
L 724.087346 210.897376 
L 725.102907 210.330188 
L 726.118468 210.785996 
L 727.134029 211.054053 
L 729.165152 213.703199 
L 730.180713 213.98715 
L 731.196274 213.446346 
L 734.242957 210.888103 
L 735.258518 209.504668 
L 737.28964 204.799547 
L 739.320762 201.20461 
L 742.367445 196.234977 
L 743.383006 194.907018 
L 744.398567 194.618913 
L 745.414128 194.958485 
L 746.429689 195.850386 
L 747.44525 194.643934 
L 748.460811 193.63816 
L 749.476372 192.282767 
L 750.491933 191.137971 
L 752.523055 191.294995 
L 753.538616 191.49609 
L 754.554177 191.812237 
L 756.585299 193.370006 
L 757.60086 193.881174 
L 759.631982 192.997051 
L 761.663104 192.064455 
L 762.678665 192.987974 
L 763.694226 194.148584 
L 764.709787 195.602814 
L 765.725348 197.439889 
L 769.787592 197.069029 
L 772.834275 196.112945 
L 773.849836 195.83601 
L 774.865397 196.280861 
L 775.880958 196.035005 
L 776.896519 196.665276 
L 777.91208 197.473318 
L 778.927641 197.287189 
L 779.943202 196.336141 
L 780.958763 193.403789 
L 784.005446 186.940738 
L 786.036568 181.677524 
L 787.052129 179.275646 
L 788.06769 177.697068 
L 789.083251 177.589631 
L 791.114373 172.762299 
L 792.129934 170.390581 
L 793.145495 168.353018 
L 795.176618 166.827793 
L 796.192179 166.149899 
L 799.238862 165.766577 
L 801.269984 161.726458 
L 802.285545 161.127809 
L 803.301106 159.829286 
L 804.316667 159.147369 
L 805.332228 159.118997 
L 806.347789 155.948704 
L 807.36335 154.234406 
L 808.378911 149.916361 
L 809.394472 143.223201 
L 811.425594 132.456725 
L 812.441155 128.763382 
L 813.456716 127.968968 
L 814.472277 126.488514 
L 815.487838 125.409431 
L 816.503399 124.587922 
L 817.51896 124.038651 
L 818.534521 123.781735 
L 819.550082 122.626467 
L 820.565643 119.999218 
L 821.581204 118.769271 
L 822.596765 116.601819 
L 824.627887 109.738051 
L 825.643448 106.842646 
L 827.67457 103.254661 
L 832.752375 92.847102 
L 833.767936 91.015105 
L 834.783497 90.437461 
L 835.799058 89.515407 
L 836.814619 87.621183 
L 838.845741 86.592811 
L 840.876863 83.959184 
L 842.907985 81.569028 
L 843.923546 80.651196 
L 844.939107 79.961019 
L 845.954668 81.367526 
L 846.970229 83.149488 
L 847.98579 84.224567 
L 849.001351 83.467382 
L 850.016912 83.633818 
L 851.032473 85.405652 
L 852.048034 86.790198 
L 853.063595 88.593123 
L 854.079156 91.628102 
L 855.094717 92.151704 
L 856.110278 93.406574 
L 857.125839 93.175417 
L 858.1414 93.115879 
L 859.156962 92.589315 
L 860.172523 92.258095 
L 861.188084 92.091697 
L 862.203645 92.95148 
L 865.250328 93.223577 
L 868.297011 93.729736 
L 870.328133 93.674168 
L 871.343694 93.597958 
L 874.390377 95.289038 
L 875.405938 95.490872 
L 877.43706 96.136073 
L 878.452621 95.911943 
L 880.483743 95.818445 
L 881.499304 96.246101 
L 882.514865 96.528944 
L 884.545987 96.084693 
L 886.577109 97.685517 
L 887.59267 97.242538 
L 890.639353 97.706373 
L 891.654914 98.592514 
L 893.686036 101.170582 
L 895.717158 99.884986 
L 897.74828 101.5264 
L 899.779402 102.295351 
L 901.810524 99.368751 
L 902.826085 99.131234 
L 903.841646 97.783706 
L 904.857207 96.730534 
L 906.888329 96.349574 
L 907.90389 96.766848 
L 908.919451 97.540851 
L 909.935012 97.102984 
L 910.950573 97.305131 
L 911.966134 97.658777 
L 912.981695 97.237352 
L 916.028378 97.058115 
L 921.106183 97.243833 
L 922.121744 96.289302 
L 923.137305 94.729914 
L 924.152867 88.404451 
L 925.168428 86.558217 
L 926.183989 84.979058 
L 930.246233 84.170164 
L 931.261794 84.319413 
L 932.277355 84.610149 
L 933.292916 84.347854 
L 934.308477 83.645634 
L 935.324038 83.241222 
L 937.35516 84.345649 
L 938.370721 84.303101 
L 939.386282 84.411445 
L 940.401843 82.691475 
L 941.417404 81.480586 
L 942.432965 76.260887 
L 944.464087 70.966077 
L 945.479648 71.72648 
L 948.526331 75.523011 
L 950.557453 80.884004 
L 952.588575 83.336463 
L 953.604136 84.957881 
L 954.619697 86.098108 
L 956.650819 91.091859 
L 957.66638 91.180686 
L 958.681941 92.452673 
L 959.697502 94.221497 
L 960.713063 94.852293 
L 963.759746 101.458405 
L 964.775307 104.326906 
L 965.790868 106.190574 
L 966.806429 108.366148 
L 968.837551 116.137185 
L 969.853112 120.715944 
L 970.868673 123.447014 
L 971.884234 125.670883 
L 972.899795 125.680065 
L 973.915356 126.962137 
L 974.930917 128.658714 
L 978.993161 140.677554 
L 980.008722 144.138451 
L 981.024283 149.377915 
L 983.055405 154.501665 
L 984.070966 156.335265 
L 985.086527 161.046175 
L 986.102088 164.90625 
L 988.13321 168.58762 
L 989.148771 168.729531 
L 990.164333 169.797231 
L 991.179894 169.544065 
L 992.195455 169.422335 
L 993.211016 169.435139 
L 994.226577 170.353329 
L 995.242138 171.072104 
L 998.288821 180.544564 
L 999.304382 180.166886 
L 1000.319943 171.239045 
L 1001.335504 166.746125 
L 1002.351065 161.188951 
L 1003.366626 154.125822 
L 1005.397748 146.450194 
L 1006.413309 139.725357 
L 1007.42887 137.015256 
L 1008.444431 133.843711 
L 1009.459992 131.715245 
L 1010.475553 130.388387 
L 1012.506675 128.126604 
L 1013.522236 127.313053 
L 1015.553358 126.066674 
L 1016.568919 126.00617 
L 1018.600041 125.703573 
L 1019.615602 125.602991 
L 1020.631163 125.717972 
L 1021.646724 125.145501 
L 1022.662285 125.016749 
L 1024.693407 124.009712 
L 1027.74009 124.29734 
L 1028.755651 124.746189 
L 1029.771212 125.028987 
L 1030.786773 126.031594 
L 1031.802334 126.288788 
L 1032.817895 127.499918 
L 1033.833456 127.748878 
L 1036.880139 131.539198 
L 1037.8957 132.502241 
L 1039.926822 133.397555 
L 1040.942383 133.07906 
L 1041.957944 133.204427 
L 1042.973505 132.658486 
L 1046.020188 133.068549 
L 1047.035749 133.112254 
L 1048.05131 135.481038 
L 1049.066871 141.978472 
L 1050.082432 144.466288 
L 1051.097993 147.48735 
L 1052.113554 152.381354 
L 1054.144676 157.742627 
L 1055.160238 164.916965 
L 1057.19136 163.043978 
L 1058.206921 162.484748 
L 1059.222482 162.612093 
L 1060.238043 162.886206 
L 1061.253604 163.840353 
L 1062.269165 163.33531 
L 1063.284726 162.082349 
L 1064.300287 161.433606 
L 1065.315848 159.311947 
L 1067.34697 153.060315 
L 1068.362531 150.178397 
L 1069.378092 149.549362 
L 1070.393653 147.074774 
L 1072.424775 140.326377 
L 1073.440336 139.308867 
L 1074.455897 138.989759 
L 1075.471458 138.498374 
L 1076.487019 135.689357 
L 1077.50258 134.6266 
L 1078.518141 134.968471 
L 1079.533702 133.636205 
L 1080.549263 135.235912 
L 1082.580385 137.631102 
L 1083.595946 137.610819 
L 1084.611507 137.952475 
L 1085.627068 139.028189 
L 1086.642629 138.666245 
L 1087.65819 139.801545 
L 1088.673751 141.186803 
L 1089.689312 141.081714 
L 1090.704873 143.722974 
L 1091.720434 143.505932 
L 1092.735995 143.446806 
L 1094.767117 145.288391 
L 1095.782678 146.397867 
L 1096.798239 146.927923 
L 1097.8138 145.292692 
L 1098.829361 142.875046 
L 1100.860483 139.89021 
L 1102.891605 139.713177 
L 1103.907166 139.850633 
L 1104.922727 137.836813 
L 1104.922727 137.836813 
" clip-path="url(#p561b89ab35)" style="fill: none; stroke: #008000; stroke-width: 1.5; stroke-linecap: square"/>
   </g>
   <g id="patch_3">
    <path d="M 39.65 578.237813 
L 39.65 23.837813 
" style="fill: none; stroke: #000000; stroke-width: 0.8; stroke-linejoin: miter; stroke-linecap: square"/>
   </g>
   <g id="patch_4">
    <path d="M 1155.65 578.237813 
L 1155.65 23.837813 
" style="fill: none; stroke: #000000; stroke-width: 0.8; stroke-linejoin: miter; stroke-linecap: square"/>
   </g>
   <g id="patch_5">
    <path d="M 39.65 578.237813 
L 1155.65 578.237813 
" style="fill: none; stroke: #000000; stroke-width: 0.8; stroke-linejoin: miter; stroke-linecap: square"/>
   </g>
   <g id="patch_6">
    <path d="M 39.65 23.837813 
L 1155.65 23.837813 
" style="fill: none; stroke: #000000; stroke-width: 0.8; stroke-linejoin: miter; stroke-linecap: square"/>
   </g>
   <g id="text_12">
    <!-- Indicator 'Bollinger Bands', Timespan 48 -->
    <g transform="translate(456.290469 17.837813) scale(0.14 -0.14)">
     <defs>
      <path id="DejaVuSans-49" d="M 628 4666 
L 1259 4666 
L 1259 0 
L 628 0 
L 628 4666 
z
" transform="scale(0.015625)"/>
      <path id="DejaVuSans-6e" d="M 3513 2113 
L 3513 0 
L 2938 0 
L 2938 2094 
Q 2938 2591 2744 2837 
Q 2550 3084 2163 3084 
Q 1697 3084 1428 2787 
Q 1159 2491 1159 1978 
L 1159 0 
L 581 0 
L 581 3500 
L 1159 3500 
L 1159 2956 
Q 1366 3272 1645 3428 
Q 1925 3584 2291 3584 
Q 2894 3584 3203 3211 
Q 3513 2838 3513 2113 
z
" transform="scale(0.015625)"/>
      <path id="DejaVuSans-64" d="M 2906 2969 
L 2906 4863 
L 3481 4863 
L 3481 0 
L 2906 0 
L 2906 525 
Q 2725 213 2448 61 
Q 2172 -91 1784 -91 
Q 1150 -91 751 415 
Q 353 922 353 1747 
Q 353 2572 751 3078 
Q 1150 3584 1784 3584 
Q 2172 3584 2448 3432 
Q 2725 3281 2906 2969 
z
M 947 1747 
Q 947 1113 1208 752 
Q 1469 391 1925 391 
Q 2381 391 2643 752 
Q 2906 1113 2906 1747 
Q 2906 2381 2643 2742 
Q 2381 3103 1925 3103 
Q 1469 3103 1208 2742 
Q 947 2381 947 1747 
z
" transform="scale(0.015625)"/>
      <path id="DejaVuSans-69" d="M 603 3500 
L 1178 3500 
L 1178 0 
L 603 0 
L 603 3500 
z
M 603 4863 
L 1178 4863 
L 1178 4134 
L 603 4134 
L 603 4863 
z
" transform="scale(0.015625)"/>
      <path id="DejaVuSans-63" d="M 3122 3366 
L 3122 2828 
Q 2878 2963 2633 3030 
Q 2388 3097 2138 3097 
Q 1578 3097 1268 2742 
Q 959 2388 959 1747 
Q 959 1106 1268 751 
Q 1578 397 2138 397 
Q 2388 397 2633 464 
Q 2878 531 3122 666 
L 3122 134 
Q 2881 22 2623 -34 
Q 2366 -91 2075 -91 
Q 1284 -91 818 406 
Q 353 903 353 1747 
Q 353 2603 823 3093 
Q 1294 3584 2113 3584 
Q 2378 3584 2631 3529 
Q 2884 3475 3122 3366 
z
" transform="scale(0.015625)"/>
      <path id="DejaVuSans-61" d="M 2194 1759 
Q 1497 1759 1228 1600 
Q 959 1441 959 1056 
Q 959 750 1161 570 
Q 1363 391 1709 391 
Q 2188 391 2477 730 
Q 2766 1069 2766 1631 
L 2766 1759 
L 2194 1759 
z
M 3341 1997 
L 3341 0 
L 2766 0 
L 2766 531 
Q 2569 213 2275 61 
Q 1981 -91 1556 -91 
Q 1019 -91 701 211 
Q 384 513 384 1019 
Q 384 1609 779 1909 
Q 1175 2209 1959 2209 
L 2766 2209 
L 2766 2266 
Q 2766 2663 2505 2880 
Q 2244 3097 1772 3097 
Q 1472 3097 1187 3025 
Q 903 2953 641 2809 
L 641 3341 
Q 956 3463 1253 3523 
Q 1550 3584 1831 3584 
Q 2591 3584 2966 3190 
Q 3341 2797 3341 1997 
z
" transform="scale(0.015625)"/>
      <path id="DejaVuSans-74" d="M 1172 4494 
L 1172 3500 
L 2356 3500 
L 2356 3053 
L 1172 3053 
L 1172 1153 
Q 1172 725 1289 603 
Q 1406 481 1766 481 
L 2356 481 
L 2356 0 
L 1766 0 
Q 1100 0 847 248 
Q 594 497 594 1153 
L 594 3053 
L 172 3053 
L 172 3500 
L 594 3500 
L 594 4494 
L 1172 4494 
z
" transform="scale(0.015625)"/>
      <path id="DejaVuSans-6f" d="M 1959 3097 
Q 1497 3097 1228 2736 
Q 959 2375 959 1747 
Q 959 1119 1226 758 
Q 1494 397 1959 397 
Q 2419 397 2687 759 
Q 2956 1122 2956 1747 
Q 2956 2369 2687 2733 
Q 2419 3097 1959 3097 
z
M 1959 3584 
Q 2709 3584 3137 3096 
Q 3566 2609 3566 1747 
Q 3566 888 3137 398 
Q 2709 -91 1959 -91 
Q 1206 -91 779 398 
Q 353 888 353 1747 
Q 353 2609 779 3096 
Q 1206 3584 1959 3584 
z
" transform="scale(0.015625)"/>
      <path id="DejaVuSans-72" d="M 2631 2963 
Q 2534 3019 2420 3045 
Q 2306 3072 2169 3072 
Q 1681 3072 1420 2755 
Q 1159 2438 1159 1844 
L 1159 0 
L 581 0 
L 581 3500 
L 1159 3500 
L 1159 2956 
Q 1341 3275 1631 3429 
Q 1922 3584 2338 3584 
Q 2397 3584 2469 3576 
Q 2541 3569 2628 3553 
L 2631 2963 
z
" transform="scale(0.015625)"/>
      <path id="DejaVuSans-20" transform="scale(0.015625)"/>
      <path id="DejaVuSans-27" d="M 1147 4666 
L 1147 2931 
L 616 2931 
L 616 4666 
L 1147 4666 
z
" transform="scale(0.015625)"/>
      <path id="DejaVuSans-42" d="M 1259 2228 
L 1259 519 
L 2272 519 
Q 2781 519 3026 730 
Q 3272 941 3272 1375 
Q 3272 1813 3026 2020 
Q 2781 2228 2272 2228 
L 1259 2228 
z
M 1259 4147 
L 1259 2741 
L 2194 2741 
Q 2656 2741 2882 2914 
Q 3109 3088 3109 3444 
Q 3109 3797 2882 3972 
Q 2656 4147 2194 4147 
L 1259 4147 
z
M 628 4666 
L 2241 4666 
Q 2963 4666 3353 4366 
Q 3744 4066 3744 3513 
Q 3744 3084 3544 2831 
Q 3344 2578 2956 2516 
Q 3422 2416 3680 2098 
Q 3938 1781 3938 1306 
Q 3938 681 3513 340 
Q 3088 0 2303 0 
L 628 0 
L 628 4666 
z
" transform="scale(0.015625)"/>
      <path id="DejaVuSans-6c" d="M 603 4863 
L 1178 4863 
L 1178 0 
L 603 0 
L 603 4863 
z
" transform="scale(0.015625)"/>
      <path id="DejaVuSans-67" d="M 2906 1791 
Q 2906 2416 2648 2759 
Q 2391 3103 1925 3103 
Q 1463 3103 1205 2759 
Q 947 2416 947 1791 
Q 947 1169 1205 825 
Q 1463 481 1925 481 
Q 2391 481 2648 825 
Q 2906 1169 2906 1791 
z
M 3481 434 
Q 3481 -459 3084 -895 
Q 2688 -1331 1869 -1331 
Q 1566 -1331 1297 -1286 
Q 1028 -1241 775 -1147 
L 775 -588 
Q 1028 -725 1275 -790 
Q 1522 -856 1778 -856 
Q 2344 -856 2625 -561 
Q 2906 -266 2906 331 
L 2906 616 
Q 2728 306 2450 153 
Q 2172 0 1784 0 
Q 1141 0 747 490 
Q 353 981 353 1791 
Q 353 2603 747 3093 
Q 1141 3584 1784 3584 
Q 2172 3584 2450 3431 
Q 2728 3278 2906 2969 
L 2906 3500 
L 3481 3500 
L 3481 434 
z
" transform="scale(0.015625)"/>
      <path id="DejaVuSans-65" d="M 3597 1894 
L 3597 1613 
L 953 1613 
Q 991 1019 1311 708 
Q 1631 397 2203 397 
Q 2534 397 2845 478 
Q 3156 559 3463 722 
L 3463 178 
Q 3153 47 2828 -22 
Q 2503 -91 2169 -91 
Q 1331 -91 842 396 
Q 353 884 353 1716 
Q 353 2575 817 3079 
Q 1281 3584 2069 3584 
Q 2775 3584 3186 3129 
Q 3597 2675 3597 1894 
z
M 3022 2063 
Q 3016 2534 2758 2815 
Q 2500 3097 2075 3097 
Q 1594 3097 1305 2825 
Q 1016 2553 972 2059 
L 3022 2063 
z
" transform="scale(0.015625)"/>
      <path id="DejaVuSans-73" d="M 2834 3397 
L 2834 2853 
Q 2591 2978 2328 3040 
Q 2066 3103 1784 3103 
Q 1356 3103 1142 2972 
Q 928 2841 928 2578 
Q 928 2378 1081 2264 
Q 1234 2150 1697 2047 
L 1894 2003 
Q 2506 1872 2764 1633 
Q 3022 1394 3022 966 
Q 3022 478 2636 193 
Q 2250 -91 1575 -91 
Q 1294 -91 989 -36 
Q 684 19 347 128 
L 347 722 
Q 666 556 975 473 
Q 1284 391 1588 391 
Q 1994 391 2212 530 
Q 2431 669 2431 922 
Q 2431 1156 2273 1281 
Q 2116 1406 1581 1522 
L 1381 1569 
Q 847 1681 609 1914 
Q 372 2147 372 2553 
Q 372 3047 722 3315 
Q 1072 3584 1716 3584 
Q 2034 3584 2315 3537 
Q 2597 3491 2834 3397 
z
" transform="scale(0.015625)"/>
      <path id="DejaVuSans-2c" d="M 750 794 
L 1409 794 
L 1409 256 
L 897 -744 
L 494 -744 
L 750 256 
L 750 794 
z
" transform="scale(0.015625)"/>
      <path id="DejaVuSans-54" d="M -19 4666 
L 3928 4666 
L 3928 4134 
L 2272 4134 
L 2272 0 
L 1638 0 
L 1638 4134 
L -19 4134 
L -19 4666 
z
" transform="scale(0.015625)"/>
      <path id="DejaVuSans-6d" d="M 3328 2828 
Q 3544 3216 3844 3400 
Q 4144 3584 4550 3584 
Q 5097 3584 5394 3201 
Q 5691 2819 5691 2113 
L 5691 0 
L 5113 0 
L 5113 2094 
Q 5113 2597 4934 2840 
Q 4756 3084 4391 3084 
Q 3944 3084 3684 2787 
Q 3425 2491 3425 1978 
L 3425 0 
L 2847 0 
L 2847 2094 
Q 2847 2600 2669 2842 
Q 2491 3084 2119 3084 
Q 1678 3084 1418 2786 
Q 1159 2488 1159 1978 
L 1159 0 
L 581 0 
L 581 3500 
L 1159 3500 
L 1159 2956 
Q 1356 3278 1631 3431 
Q 1906 3584 2284 3584 
Q 2666 3584 2933 3390 
Q 3200 3197 3328 2828 
z
" transform="scale(0.015625)"/>
      <path id="DejaVuSans-70" d="M 1159 525 
L 1159 -1331 
L 581 -1331 
L 581 3500 
L 1159 3500 
L 1159 2969 
Q 1341 3281 1617 3432 
Q 1894 3584 2278 3584 
Q 2916 3584 3314 3078 
Q 3713 2572 3713 1747 
Q 3713 922 3314 415 
Q 2916 -91 2278 -91 
Q 1894 -91 1617 61 
Q 1341 213 1159 525 
z
M 3116 1747 
Q 3116 2381 2855 2742 
Q 2594 3103 2138 3103 
Q 1681 3103 1420 2742 
Q 1159 2381 1159 1747 
Q 1159 1113 1420 752 
Q 1681 391 2138 391 
Q 2594 391 2855 752 
Q 3116 1113 3116 1747 
z
" transform="scale(0.015625)"/>
     </defs>
     <use xlink:href="#DejaVuSans-49"/>
     <use xlink:href="#DejaVuSans-6e" x="29.492188"/>
     <use xlink:href="#DejaVuSans-64" x="92.871094"/>
     <use xlink:href="#DejaVuSans-69" x="156.347656"/>
     <use xlink:href="#DejaVuSans-63" x="184.130859"/>
     <use xlink:href="#DejaVuSans-61" x="239.111328"/>
     <use xlink:href="#DejaVuSans-74" x="300.390625"/>
     <use xlink:href="#DejaVuSans-6f" x="339.599609"/>
     <use xlink:href="#DejaVuSans-72" x="400.78125"/>
     <use xlink:href="#DejaVuSans-20" x="441.894531"/>
     <use xlink:href="#DejaVuSans-27" x="473.681641"/>
     <use xlink:href="#DejaVuSans-42" x="501.171875"/>
     <use xlink:href="#DejaVuSans-6f" x="569.775391"/>
     <use xlink:href="#DejaVuSans-6c" x="630.957031"/>
     <use xlink:href="#DejaVuSans-6c" x="658.740234"/>
     <use xlink:href="#DejaVuSans-69" x="686.523438"/>
     <use xlink:href="#DejaVuSans-6e" x="714.306641"/>
     <use xlink:href="#DejaVuSans-67" x="777.685547"/>
     <use xlink:href="#DejaVuSans-65" x="841.162109"/>
     <use xlink:href="#DejaVuSans-72" x="902.685547"/>
     <use xlink:href="#DejaVuSans-20" x="943.798828"/>
     <use xlink:href="#DejaVuSans-42" x="975.585938"/>
     <use xlink:href="#DejaVuSans-61" x="1044.189453"/>
     <use xlink:href="#DejaVuSans-6e" x="1105.46875"/>
     <use xlink:href="#DejaVuSans-64" x="1168.847656"/>
     <use xlink:href="#DejaVuSans-73" x="1232.324219"/>
     <use xlink:href="#DejaVuSans-27" x="1284.423828"/>
     <use xlink:href="#DejaVuSans-2c" x="1311.914062"/>
     <use xlink:href="#DejaVuSans-20" x="1343.701172"/>
     <use xlink:href="#DejaVuSans-54" x="1375.488281"/>
     <use xlink:href="#DejaVuSans-69" x="1433.447266"/>
     <use xlink:href="#DejaVuSans-6d" x="1461.230469"/>
     <use xlink:href="#DejaVuSans-65" x="1558.642578"/>
     <use xlink:href="#DejaVuSans-73" x="1620.166016"/>
     <use xlink:href="#DejaVuSans-70" x="1672.265625"/>
     <use xlink:href="#DejaVuSans-61" x="1735.742188"/>
     <use xlink:href="#DejaVuSans-6e" x="1797.021484"/>
     <use xlink:href="#DejaVuSans-20" x="1860.400391"/>
     <use xlink:href="#DejaVuSans-34" x="1892.1875"/>
     <use xlink:href="#DejaVuSans-38" x="1955.810547"/>
    </g>
   </g>
   <g id="legend_1">
    <g id="patch_7">
     <path d="M 46.65 91.384687 
L 179.125 91.384687 
Q 181.125 91.384687 181.125 89.384688 
L 181.125 30.837813 
Q 181.125 28.837813 179.125 28.837813 
L 46.65 28.837813 
Q 44.65 28.837813 44.65 30.837813 
L 44.65 89.384688 
Q 44.65 91.384687 46.65 91.384687 
z
" style="fill: #ffffff; opacity: 0.8; stroke: #cccccc; stroke-linejoin: miter"/>
    </g>
    <g id="line2d_16">
     <path d="M 48.65 36.93625 
L 58.65 36.93625 
L 68.65 36.93625 
" style="fill: none; stroke: #808080; stroke-width: 1.5; stroke-linecap: square"/>
    </g>
    <g id="text_13">
     <!-- Open price -->
     <g transform="translate(76.65 40.43625) scale(0.1 -0.1)">
      <defs>
       <path id="DejaVuSans-4f" d="M 2522 4238 
Q 1834 4238 1429 3725 
Q 1025 3213 1025 2328 
Q 1025 1447 1429 934 
Q 1834 422 2522 422 
Q 3209 422 3611 934 
Q 4013 1447 4013 2328 
Q 4013 3213 3611 3725 
Q 3209 4238 2522 4238 
z
M 2522 4750 
Q 3503 4750 4090 4092 
Q 4678 3434 4678 2328 
Q 4678 1225 4090 567 
Q 3503 -91 2522 -91 
Q 1538 -91 948 565 
Q 359 1222 359 2328 
Q 359 3434 948 4092 
Q 1538 4750 2522 4750 
z
" transform="scale(0.015625)"/>
      </defs>
      <use xlink:href="#DejaVuSans-4f"/>
      <use xlink:href="#DejaVuSans-70" x="78.710938"/>
      <use xlink:href="#DejaVuSans-65" x="142.1875"/>
      <use xlink:href="#DejaVuSans-6e" x="203.710938"/>
      <use xlink:href="#DejaVuSans-20" x="267.089844"/>
      <use xlink:href="#DejaVuSans-70" x="298.876953"/>
      <use xlink:href="#DejaVuSans-72" x="362.353516"/>
      <use xlink:href="#DejaVuSans-69" x="403.466797"/>
      <use xlink:href="#DejaVuSans-63" x="431.25"/>
      <use xlink:href="#DejaVuSans-65" x="486.230469"/>
     </g>
    </g>
    <g id="line2d_17">
     <path d="M 48.65 51.614375 
L 58.65 51.614375 
L 68.65 51.614375 
" style="fill: none; stroke: #ff0000; stroke-width: 1.5; stroke-linecap: square"/>
    </g>
    <g id="text_14">
     <!-- Indicator 'c_BolL48' -->
     <g transform="translate(76.65 55.114375) scale(0.1 -0.1)">
      <defs>
       <path id="DejaVuSans-5f" d="M 3263 -1063 
L 3263 -1509 
L -63 -1509 
L -63 -1063 
L 3263 -1063 
z
" transform="scale(0.015625)"/>
       <path id="DejaVuSans-4c" d="M 628 4666 
L 1259 4666 
L 1259 531 
L 3531 531 
L 3531 0 
L 628 0 
L 628 4666 
z
" transform="scale(0.015625)"/>
      </defs>
      <use xlink:href="#DejaVuSans-49"/>
      <use xlink:href="#DejaVuSans-6e" x="29.492188"/>
      <use xlink:href="#DejaVuSans-64" x="92.871094"/>
      <use xlink:href="#DejaVuSans-69" x="156.347656"/>
      <use xlink:href="#DejaVuSans-63" x="184.130859"/>
      <use xlink:href="#DejaVuSans-61" x="239.111328"/>
      <use xlink:href="#DejaVuSans-74" x="300.390625"/>
      <use xlink:href="#DejaVuSans-6f" x="339.599609"/>
      <use xlink:href="#DejaVuSans-72" x="400.78125"/>
      <use xlink:href="#DejaVuSans-20" x="441.894531"/>
      <use xlink:href="#DejaVuSans-27" x="473.681641"/>
      <use xlink:href="#DejaVuSans-63" x="501.171875"/>
      <use xlink:href="#DejaVuSans-5f" x="556.152344"/>
      <use xlink:href="#DejaVuSans-42" x="606.152344"/>
      <use xlink:href="#DejaVuSans-6f" x="674.755859"/>
      <use xlink:href="#DejaVuSans-6c" x="735.9375"/>
      <use xlink:href="#DejaVuSans-4c" x="763.720703"/>
      <use xlink:href="#DejaVuSans-34" x="819.433594"/>
      <use xlink:href="#DejaVuSans-38" x="883.056641"/>
      <use xlink:href="#DejaVuSans-27" x="946.679688"/>
     </g>
    </g>
    <g id="line2d_18">
     <path d="M 48.65 66.570625 
L 58.65 66.570625 
L 68.65 66.570625 
" style="fill: none; stroke: #000000; stroke-width: 1.5; stroke-linecap: square"/>
    </g>
    <g id="text_15">
     <!-- Indicator 'c_BolM48' -->
     <g transform="translate(76.65 70.070625) scale(0.1 -0.1)">
      <defs>
       <path id="DejaVuSans-4d" d="M 628 4666 
L 1569 4666 
L 2759 1491 
L 3956 4666 
L 4897 4666 
L 4897 0 
L 4281 0 
L 4281 4097 
L 3078 897 
L 2444 897 
L 1241 4097 
L 1241 0 
L 628 0 
L 628 4666 
z
" transform="scale(0.015625)"/>
      </defs>
      <use xlink:href="#DejaVuSans-49"/>
      <use xlink:href="#DejaVuSans-6e" x="29.492188"/>
      <use xlink:href="#DejaVuSans-64" x="92.871094"/>
      <use xlink:href="#DejaVuSans-69" x="156.347656"/>
      <use xlink:href="#DejaVuSans-63" x="184.130859"/>
      <use xlink:href="#DejaVuSans-61" x="239.111328"/>
      <use xlink:href="#DejaVuSans-74" x="300.390625"/>
      <use xlink:href="#DejaVuSans-6f" x="339.599609"/>
      <use xlink:href="#DejaVuSans-72" x="400.78125"/>
      <use xlink:href="#DejaVuSans-20" x="441.894531"/>
      <use xlink:href="#DejaVuSans-27" x="473.681641"/>
      <use xlink:href="#DejaVuSans-63" x="501.171875"/>
      <use xlink:href="#DejaVuSans-5f" x="556.152344"/>
      <use xlink:href="#DejaVuSans-42" x="606.152344"/>
      <use xlink:href="#DejaVuSans-6f" x="674.755859"/>
      <use xlink:href="#DejaVuSans-6c" x="735.9375"/>
      <use xlink:href="#DejaVuSans-4d" x="763.720703"/>
      <use xlink:href="#DejaVuSans-34" x="850"/>
      <use xlink:href="#DejaVuSans-38" x="913.623047"/>
      <use xlink:href="#DejaVuSans-27" x="977.246094"/>
     </g>
    </g>
    <g id="line2d_19">
     <path d="M 48.65 81.526875 
L 58.65 81.526875 
L 68.65 81.526875 
" style="fill: none; stroke: #008000; stroke-width: 1.5; stroke-linecap: square"/>
    </g>
    <g id="text_16">
     <!-- Indicator 'c_BolU48' -->
     <g transform="translate(76.65 85.026875) scale(0.1 -0.1)">
      <defs>
       <path id="DejaVuSans-55" d="M 556 4666 
L 1191 4666 
L 1191 1831 
Q 1191 1081 1462 751 
Q 1734 422 2344 422 
Q 2950 422 3222 751 
Q 3494 1081 3494 1831 
L 3494 4666 
L 4128 4666 
L 4128 1753 
Q 4128 841 3676 375 
Q 3225 -91 2344 -91 
Q 1459 -91 1007 375 
Q 556 841 556 1753 
L 556 4666 
z
" transform="scale(0.015625)"/>
      </defs>
      <use xlink:href="#DejaVuSans-49"/>
      <use xlink:href="#DejaVuSans-6e" x="29.492188"/>
      <use xlink:href="#DejaVuSans-64" x="92.871094"/>
      <use xlink:href="#DejaVuSans-69" x="156.347656"/>
      <use xlink:href="#DejaVuSans-63" x="184.130859"/>
      <use xlink:href="#DejaVuSans-61" x="239.111328"/>
      <use xlink:href="#DejaVuSans-74" x="300.390625"/>
      <use xlink:href="#DejaVuSans-6f" x="339.599609"/>
      <use xlink:href="#DejaVuSans-72" x="400.78125"/>
      <use xlink:href="#DejaVuSans-20" x="441.894531"/>
      <use xlink:href="#DejaVuSans-27" x="473.681641"/>
      <use xlink:href="#DejaVuSans-63" x="501.171875"/>
      <use xlink:href="#DejaVuSans-5f" x="556.152344"/>
      <use xlink:href="#DejaVuSans-42" x="606.152344"/>
      <use xlink:href="#DejaVuSans-6f" x="674.755859"/>
      <use xlink:href="#DejaVuSans-6c" x="735.9375"/>
      <use xlink:href="#DejaVuSans-55" x="763.720703"/>
      <use xlink:href="#DejaVuSans-34" x="836.914062"/>
      <use xlink:href="#DejaVuSans-38" x="900.537109"/>
      <use xlink:href="#DejaVuSans-27" x="964.160156"/>
     </g>
    </g>
   </g>
  </g>
 </g>
 <defs>
  <clipPath id="p561b89ab35">
   <rect x="39.65" y="23.837813" width="1116" height="554.4"/>
  </clipPath>
 </defs>
</svg>
