<?xml version="1.0" encoding="utf-8" standalone="no"?>
<!DOCTYPE svg PUBLIC "-//W3C//DTD SVG 1.1//EN"
  "http://www.w3.org/Graphics/SVG/1.1/DTD/svg11.dtd">
<svg xmlns:xlink="http://www.w3.org/1999/xlink" width="1162.85pt" height="600.59625pt" viewBox="0 0 1162.85 600.59625" xmlns="http://www.w3.org/2000/svg" version="1.1">
 <metadata>
  <rdf:RDF xmlns:dc="http://purl.org/dc/elements/1.1/" xmlns:cc="http://creativecommons.org/ns#" xmlns:rdf="http://www.w3.org/1999/02/22-rdf-syntax-ns#">
   <cc:Work>
    <dc:type rdf:resource="http://purl.org/dc/dcmitype/StillImage"/>
    <dc:date>2022-12-02T09:08:22.635633</dc:date>
    <dc:format>image/svg+xml</dc:format>
    <dc:creator>
     <cc:Agent>
      <dc:title>Matplotlib v3.6.2, https://matplotlib.org/</dc:title>
     </cc:Agent>
    </dc:creator>
   </cc:Work>
  </rdf:RDF>
 </metadata>
 <defs>
  <style type="text/css">*{stroke-linejoin: round; stroke-linecap: butt}</style>
 </defs>
 <g id="figure_1">
  <g id="patch_1">
   <path d="M 0 600.59625 
L 1162.85 600.59625 
L 1162.85 0 
L 0 0 
z
" style="fill: #ffffff"/>
  </g>
  <g id="axes_1">
   <g id="patch_2">
    <path d="M 39.65 576.718125 
L 1155.65 576.718125 
L 1155.65 22.318125 
L 39.65 22.318125 
z
" style="fill: #ffffff"/>
   </g>
   <g id="matplotlib.axis_1">
    <g id="xtick_1">
     <g id="line2d_1">
      <defs>
       <path id="m4df26715e5" d="M 0 0 
L 0 3.5 
" style="stroke: #000000; stroke-width: 0.8"/>
      </defs>
      <g>
       <use xlink:href="#m4df26715e5" x="90.377273" y="576.718125" style="stroke: #000000; stroke-width: 0.8"/>
      </g>
     </g>
     <g id="text_1">
      <!-- 0 -->
      <g transform="translate(87.196023 591.316563) scale(0.1 -0.1)">
       <defs>
        <path id="DejaVuSans-30" d="M 2034 4250 
Q 1547 4250 1301 3770 
Q 1056 3291 1056 2328 
Q 1056 1369 1301 889 
Q 1547 409 2034 409 
Q 2525 409 2770 889 
Q 3016 1369 3016 2328 
Q 3016 3291 2770 3770 
Q 2525 4250 2034 4250 
z
M 2034 4750 
Q 2819 4750 3233 4129 
Q 3647 3509 3647 2328 
Q 3647 1150 3233 529 
Q 2819 -91 2034 -91 
Q 1250 -91 836 529 
Q 422 1150 422 2328 
Q 422 3509 836 4129 
Q 1250 4750 2034 4750 
z
" transform="scale(0.015625)"/>
       </defs>
       <use xlink:href="#DejaVuSans-30"/>
      </g>
     </g>
    </g>
    <g id="xtick_2">
     <g id="line2d_2">
      <g>
       <use xlink:href="#m4df26715e5" x="293.692995" y="576.718125" style="stroke: #000000; stroke-width: 0.8"/>
      </g>
     </g>
     <g id="text_2">
      <!-- 100 -->
      <g transform="translate(284.149245 591.316563) scale(0.1 -0.1)">
       <defs>
        <path id="DejaVuSans-31" d="M 794 531 
L 1825 531 
L 1825 4091 
L 703 3866 
L 703 4441 
L 1819 4666 
L 2450 4666 
L 2450 531 
L 3481 531 
L 3481 0 
L 794 0 
L 794 531 
z
" transform="scale(0.015625)"/>
       </defs>
       <use xlink:href="#DejaVuSans-31"/>
       <use xlink:href="#DejaVuSans-30" x="63.623047"/>
       <use xlink:href="#DejaVuSans-30" x="127.246094"/>
      </g>
     </g>
    </g>
    <g id="xtick_3">
     <g id="line2d_3">
      <g>
       <use xlink:href="#m4df26715e5" x="497.008717" y="576.718125" style="stroke: #000000; stroke-width: 0.8"/>
      </g>
     </g>
     <g id="text_3">
      <!-- 200 -->
      <g transform="translate(487.464967 591.316563) scale(0.1 -0.1)">
       <defs>
        <path id="DejaVuSans-32" d="M 1228 531 
L 3431 531 
L 3431 0 
L 469 0 
L 469 531 
Q 828 903 1448 1529 
Q 2069 2156 2228 2338 
Q 2531 2678 2651 2914 
Q 2772 3150 2772 3378 
Q 2772 3750 2511 3984 
Q 2250 4219 1831 4219 
Q 1534 4219 1204 4116 
Q 875 4013 500 3803 
L 500 4441 
Q 881 4594 1212 4672 
Q 1544 4750 1819 4750 
Q 2544 4750 2975 4387 
Q 3406 4025 3406 3419 
Q 3406 3131 3298 2873 
Q 3191 2616 2906 2266 
Q 2828 2175 2409 1742 
Q 1991 1309 1228 531 
z
" transform="scale(0.015625)"/>
       </defs>
       <use xlink:href="#DejaVuSans-32"/>
       <use xlink:href="#DejaVuSans-30" x="63.623047"/>
       <use xlink:href="#DejaVuSans-30" x="127.246094"/>
      </g>
     </g>
    </g>
    <g id="xtick_4">
     <g id="line2d_4">
      <g>
       <use xlink:href="#m4df26715e5" x="700.32444" y="576.718125" style="stroke: #000000; stroke-width: 0.8"/>
      </g>
     </g>
     <g id="text_4">
      <!-- 300 -->
      <g transform="translate(690.78069 591.316563) scale(0.1 -0.1)">
       <defs>
        <path id="DejaVuSans-33" d="M 2597 2516 
Q 3050 2419 3304 2112 
Q 3559 1806 3559 1356 
Q 3559 666 3084 287 
Q 2609 -91 1734 -91 
Q 1441 -91 1130 -33 
Q 819 25 488 141 
L 488 750 
Q 750 597 1062 519 
Q 1375 441 1716 441 
Q 2309 441 2620 675 
Q 2931 909 2931 1356 
Q 2931 1769 2642 2001 
Q 2353 2234 1838 2234 
L 1294 2234 
L 1294 2753 
L 1863 2753 
Q 2328 2753 2575 2939 
Q 2822 3125 2822 3475 
Q 2822 3834 2567 4026 
Q 2313 4219 1838 4219 
Q 1578 4219 1281 4162 
Q 984 4106 628 3988 
L 628 4550 
Q 988 4650 1302 4700 
Q 1616 4750 1894 4750 
Q 2613 4750 3031 4423 
Q 3450 4097 3450 3541 
Q 3450 3153 3228 2886 
Q 3006 2619 2597 2516 
z
" transform="scale(0.015625)"/>
       </defs>
       <use xlink:href="#DejaVuSans-33"/>
       <use xlink:href="#DejaVuSans-30" x="63.623047"/>
       <use xlink:href="#DejaVuSans-30" x="127.246094"/>
      </g>
     </g>
    </g>
    <g id="xtick_5">
     <g id="line2d_5">
      <g>
       <use xlink:href="#m4df26715e5" x="903.640162" y="576.718125" style="stroke: #000000; stroke-width: 0.8"/>
      </g>
     </g>
     <g id="text_5">
      <!-- 400 -->
      <g transform="translate(894.096412 591.316563) scale(0.1 -0.1)">
       <defs>
        <path id="DejaVuSans-34" d="M 2419 4116 
L 825 1625 
L 2419 1625 
L 2419 4116 
z
M 2253 4666 
L 3047 4666 
L 3047 1625 
L 3713 1625 
L 3713 1100 
L 3047 1100 
L 3047 0 
L 2419 0 
L 2419 1100 
L 313 1100 
L 313 1709 
L 2253 4666 
z
" transform="scale(0.015625)"/>
       </defs>
       <use xlink:href="#DejaVuSans-34"/>
       <use xlink:href="#DejaVuSans-30" x="63.623047"/>
       <use xlink:href="#DejaVuSans-30" x="127.246094"/>
      </g>
     </g>
    </g>
    <g id="xtick_6">
     <g id="line2d_6">
      <g>
       <use xlink:href="#m4df26715e5" x="1106.955884" y="576.718125" style="stroke: #000000; stroke-width: 0.8"/>
      </g>
     </g>
     <g id="text_6">
      <!-- 500 -->
      <g transform="translate(1097.412134 591.316563) scale(0.1 -0.1)">
       <defs>
        <path id="DejaVuSans-35" d="M 691 4666 
L 3169 4666 
L 3169 4134 
L 1269 4134 
L 1269 2991 
Q 1406 3038 1543 3061 
Q 1681 3084 1819 3084 
Q 2600 3084 3056 2656 
Q 3513 2228 3513 1497 
Q 3513 744 3044 326 
Q 2575 -91 1722 -91 
Q 1428 -91 1123 -41 
Q 819 9 494 109 
L 494 744 
Q 775 591 1075 516 
Q 1375 441 1709 441 
Q 2250 441 2565 725 
Q 2881 1009 2881 1497 
Q 2881 1984 2565 2268 
Q 2250 2553 1709 2553 
Q 1456 2553 1204 2497 
Q 953 2441 691 2322 
L 691 4666 
z
" transform="scale(0.015625)"/>
       </defs>
       <use xlink:href="#DejaVuSans-35"/>
       <use xlink:href="#DejaVuSans-30" x="63.623047"/>
       <use xlink:href="#DejaVuSans-30" x="127.246094"/>
      </g>
     </g>
    </g>
   </g>
   <g id="matplotlib.axis_2">
    <g id="ytick_1">
     <g id="line2d_7">
      <defs>
       <path id="mcc788a8368" d="M 0 0 
L -3.5 0 
" style="stroke: #000000; stroke-width: 0.8"/>
      </defs>
      <g>
       <use xlink:href="#mcc788a8368" x="39.65" y="536.531984" style="stroke: #000000; stroke-width: 0.8"/>
      </g>
     </g>
     <g id="text_7">
      <!-- 950 -->
      <g transform="translate(13.5625 540.331203) scale(0.1 -0.1)">
       <defs>
        <path id="DejaVuSans-39" d="M 703 97 
L 703 672 
Q 941 559 1184 500 
Q 1428 441 1663 441 
Q 2288 441 2617 861 
Q 2947 1281 2994 2138 
Q 2813 1869 2534 1725 
Q 2256 1581 1919 1581 
Q 1219 1581 811 2004 
Q 403 2428 403 3163 
Q 403 3881 828 4315 
Q 1253 4750 1959 4750 
Q 2769 4750 3195 4129 
Q 3622 3509 3622 2328 
Q 3622 1225 3098 567 
Q 2575 -91 1691 -91 
Q 1453 -91 1209 -44 
Q 966 3 703 97 
z
M 1959 2075 
Q 2384 2075 2632 2365 
Q 2881 2656 2881 3163 
Q 2881 3666 2632 3958 
Q 2384 4250 1959 4250 
Q 1534 4250 1286 3958 
Q 1038 3666 1038 3163 
Q 1038 2656 1286 2365 
Q 1534 2075 1959 2075 
z
" transform="scale(0.015625)"/>
       </defs>
       <use xlink:href="#DejaVuSans-39"/>
       <use xlink:href="#DejaVuSans-35" x="63.623047"/>
       <use xlink:href="#DejaVuSans-30" x="127.246094"/>
      </g>
     </g>
    </g>
    <g id="ytick_2">
     <g id="line2d_8">
      <g>
       <use xlink:href="#mcc788a8368" x="39.65" y="467.598494" style="stroke: #000000; stroke-width: 0.8"/>
      </g>
     </g>
     <g id="text_8">
      <!-- 975 -->
      <g transform="translate(13.5625 471.397713) scale(0.1 -0.1)">
       <defs>
        <path id="DejaVuSans-37" d="M 525 4666 
L 3525 4666 
L 3525 4397 
L 1831 0 
L 1172 0 
L 2766 4134 
L 525 4134 
L 525 4666 
z
" transform="scale(0.015625)"/>
       </defs>
       <use xlink:href="#DejaVuSans-39"/>
       <use xlink:href="#DejaVuSans-37" x="63.623047"/>
       <use xlink:href="#DejaVuSans-35" x="127.246094"/>
      </g>
     </g>
    </g>
    <g id="ytick_3">
     <g id="line2d_9">
      <g>
       <use xlink:href="#mcc788a8368" x="39.65" y="398.665004" style="stroke: #000000; stroke-width: 0.8"/>
      </g>
     </g>
     <g id="text_9">
      <!-- 1000 -->
      <g transform="translate(7.2 402.464223) scale(0.1 -0.1)">
       <use xlink:href="#DejaVuSans-31"/>
       <use xlink:href="#DejaVuSans-30" x="63.623047"/>
       <use xlink:href="#DejaVuSans-30" x="127.246094"/>
       <use xlink:href="#DejaVuSans-30" x="190.869141"/>
      </g>
     </g>
    </g>
    <g id="ytick_4">
     <g id="line2d_10">
      <g>
       <use xlink:href="#mcc788a8368" x="39.65" y="329.731514" style="stroke: #000000; stroke-width: 0.8"/>
      </g>
     </g>
     <g id="text_10">
      <!-- 1025 -->
      <g transform="translate(7.2 333.530733) scale(0.1 -0.1)">
       <use xlink:href="#DejaVuSans-31"/>
       <use xlink:href="#DejaVuSans-30" x="63.623047"/>
       <use xlink:href="#DejaVuSans-32" x="127.246094"/>
       <use xlink:href="#DejaVuSans-35" x="190.869141"/>
      </g>
     </g>
    </g>
    <g id="ytick_5">
     <g id="line2d_11">
      <g>
       <use xlink:href="#mcc788a8368" x="39.65" y="260.798024" style="stroke: #000000; stroke-width: 0.8"/>
      </g>
     </g>
     <g id="text_11">
      <!-- 1050 -->
      <g transform="translate(7.2 264.597243) scale(0.1 -0.1)">
       <use xlink:href="#DejaVuSans-31"/>
       <use xlink:href="#DejaVuSans-30" x="63.623047"/>
       <use xlink:href="#DejaVuSans-35" x="127.246094"/>
       <use xlink:href="#DejaVuSans-30" x="190.869141"/>
      </g>
     </g>
    </g>
    <g id="ytick_6">
     <g id="line2d_12">
      <g>
       <use xlink:href="#mcc788a8368" x="39.65" y="191.864534" style="stroke: #000000; stroke-width: 0.8"/>
      </g>
     </g>
     <g id="text_12">
      <!-- 1075 -->
      <g transform="translate(7.2 195.663753) scale(0.1 -0.1)">
       <use xlink:href="#DejaVuSans-31"/>
       <use xlink:href="#DejaVuSans-30" x="63.623047"/>
       <use xlink:href="#DejaVuSans-37" x="127.246094"/>
       <use xlink:href="#DejaVuSans-35" x="190.869141"/>
      </g>
     </g>
    </g>
    <g id="ytick_7">
     <g id="line2d_13">
      <g>
       <use xlink:href="#mcc788a8368" x="39.65" y="122.931044" style="stroke: #000000; stroke-width: 0.8"/>
      </g>
     </g>
     <g id="text_13">
      <!-- 1100 -->
      <g transform="translate(7.2 126.730263) scale(0.1 -0.1)">
       <use xlink:href="#DejaVuSans-31"/>
       <use xlink:href="#DejaVuSans-31" x="63.623047"/>
       <use xlink:href="#DejaVuSans-30" x="127.246094"/>
       <use xlink:href="#DejaVuSans-30" x="190.869141"/>
      </g>
     </g>
    </g>
    <g id="ytick_8">
     <g id="line2d_14">
      <g>
       <use xlink:href="#mcc788a8368" x="39.65" y="53.997554" style="stroke: #000000; stroke-width: 0.8"/>
      </g>
     </g>
     <g id="text_14">
      <!-- 1125 -->
      <g transform="translate(7.2 57.796773) scale(0.1 -0.1)">
       <use xlink:href="#DejaVuSans-31"/>
       <use xlink:href="#DejaVuSans-31" x="63.623047"/>
       <use xlink:href="#DejaVuSans-32" x="127.246094"/>
       <use xlink:href="#DejaVuSans-35" x="190.869141"/>
      </g>
     </g>
    </g>
   </g>
   <g id="line2d_15">
    <path d="M 90.377273 465.792092 
L 92.41043 472.010238 
L 96.476744 472.010238 
L 98.509902 503.443909 
L 100.543059 471.086529 
L 110.708845 471.086529 
L 112.742002 486.899871 
L 116.808317 481.385192 
L 120.874631 481.385192 
L 122.907788 468.673857 
L 124.940946 451.746881 
L 126.974103 449.666411 
L 129.00726 466.817172 
L 131.040417 466.817172 
L 133.073574 442.782438 
L 135.106732 481.093792 
L 137.139889 480.81718 
L 143.239361 480.81718 
L 145.272518 457.757549 
L 147.305675 445.539777 
L 149.338832 452.76125 
L 151.371989 441.425827 
L 153.405147 441.425827 
L 155.438304 440.025098 
L 157.471461 426.2384 
L 159.504618 426.2384 
L 161.537776 399.72658 
L 163.570933 415.890105 
L 165.60409 404.179683 
L 167.637247 399.326766 
L 169.670404 404.841445 
L 171.703562 382.245047 
L 173.736719 416.819328 
L 175.769876 376.606287 
L 177.803033 410.016923 
L 179.836191 376.606287 
L 181.869348 392.719543 
L 183.902505 343.576572 
L 185.935662 343.576572 
L 187.968819 398.665004 
L 190.001977 423.277018 
L 192.035134 371.091608 
L 198.134606 371.091608 
L 200.167763 409.694363 
L 202.20092 398.665004 
L 204.234077 398.665004 
L 206.267234 371.091608 
L 208.300392 371.091608 
L 210.333549 398.665004 
L 212.366706 392.301064 
L 218.466178 392.301064 
L 220.499335 371.091608 
L 222.532492 347.875554 
L 230.665121 347.875554 
L 232.698278 398.665004 
L 255.063008 398.665004 
L 257.096165 371.091608 
L 259.129322 357.30491 
L 261.16248 315.944816 
L 263.195637 315.944816 
L 265.228794 344.918377 
L 287.593523 344.918377 
L 289.626681 322.266017 
L 297.75931 322.266017 
L 299.792467 350.433056 
L 305.891938 350.433056 
L 307.925096 387.635646 
L 309.958253 398.665004 
L 311.99141 410.998558 
L 314.024567 371.091608 
L 316.057725 371.091608 
L 318.090882 359.058578 
L 326.223511 359.058578 
L 328.256668 352.096627 
L 360.787183 352.096627 
L 362.820341 380.606494 
L 377.052441 380.606494 
L 379.085598 330.420849 
L 381.118756 313.159185 
L 383.151913 313.159185 
L 385.18507 296.643439 
L 387.218227 270.430314 
L 395.350856 270.430314 
L 397.384013 260.798024 
L 399.417171 306.894122 
L 401.450328 301.707731 
L 407.5498 301.707731 
L 409.582957 291.12876 
L 411.616114 260.798024 
L 417.715586 260.798024 
L 419.748743 257.489217 
L 421.7819 233.224628 
L 423.815057 260.798024 
L 427.881372 260.798024 
L 429.914529 226.577108 
L 433.980844 226.577108 
L 436.014001 260.798024 
L 438.047158 338.924484 
L 440.080315 296.307044 
L 442.113472 301.909958 
L 444.14663 301.909958 
L 446.179787 277.055256 
L 452.279259 277.055256 
L 454.312416 264.567307 
L 456.345573 264.567307 
L 458.37873 225.428765 
L 460.411887 232.993871 
L 462.445045 227.479192 
L 464.478202 227.479193 
L 466.511359 275.963392 
L 468.544516 282.516166 
L 470.577674 227.479192 
L 472.610831 264.337734 
L 474.643988 212.332184 
L 476.677145 205.651232 
L 478.710302 192.090636 
L 480.74346 200.136553 
L 482.776617 233.224628 
L 484.809774 247.011326 
L 486.842931 219.43793 
L 490.909246 219.43793 
L 492.942403 258.054471 
L 494.97556 288.37142 
L 497.008717 428.199256 
L 499.041875 551.518125 
L 501.075032 454.892673 
L 503.108189 456.001124 
L 505.141346 453.811796 
L 507.174504 509.973748 
L 509.207661 550.318682 
L 511.240818 542.432691 
L 513.273975 525.903934 
L 515.307132 517.230607 
L 519.373447 517.230607 
L 521.406604 508.958588 
L 527.506076 508.958588 
L 529.539233 499.997235 
L 531.57239 485.662016 
L 533.605547 522.745286 
L 535.638705 522.745286 
L 537.671862 536.531984 
L 539.705019 536.531984 
L 541.738176 539.068868 
L 543.771334 536.531984 
L 545.804491 484.142532 
L 547.837648 484.142532 
L 549.870805 471.897364 
L 551.903962 471.897364 
L 555.970277 442.197447 
L 558.003434 441.972856 
L 560.036591 429.547208 
L 562.069749 413.549123 
L 574.268692 413.549123 
L 576.301849 399.76794 
L 578.335006 399.76794 
L 580.368164 394.367635 
L 586.467635 394.367635 
L 588.500792 404.997407 
L 643.396038 404.997407 
L 645.429195 418.39008 
L 647.462352 418.39008 
L 649.495509 420.723721 
L 651.528666 426.514134 
L 653.561824 398.665004 
L 655.594981 384.332478 
L 659.661295 384.332478 
L 661.694453 398.665004 
L 663.72761 384.881064 
L 667.793924 384.881064 
L 669.827081 387.635646 
L 671.860239 384.883821 
L 677.95971 384.881064 
L 679.992868 426.2384 
L 682.026025 454.892673 
L 696.258125 454.892673 
L 698.291283 434.510419 
L 706.423911 434.510419 
L 708.457069 406.937023 
L 710.490226 384.881064 
L 714.55654 384.881064 
L 716.589698 440.025098 
L 720.656012 440.025098 
L 722.689169 394.366312 
L 724.722326 387.704579 
L 726.755484 384.332353 
L 728.788641 384.332353 
L 730.821798 365.576929 
L 732.854955 381.839718 
L 734.888113 354.202903 
L 736.92127 397.649814 
L 745.053899 397.649814 
L 747.087056 395.907665 
L 749.120213 360.06225 
L 759.285999 360.06225 
L 761.319156 371.091608 
L 771.484943 371.091608 
L 773.5181 395.494064 
L 787.7502 395.494064 
L 789.783358 395.631931 
L 795.882829 395.631931 
L 797.915987 358.989645 
L 799.949144 349.032891 
L 808.081773 349.032891 
L 810.11493 395.631931 
L 812.148087 395.631931 
L 814.181244 349.032892 
L 816.214402 329.731514 
L 822.313873 329.731514 
L 824.34703 357.75666 
L 828.413345 357.75666 
L 830.446502 315.944816 
L 832.479659 306.567052 
L 834.512817 306.567104 
L 836.545974 311.014686 
L 838.579131 309.324444 
L 840.612288 309.324444 
L 842.645445 288.371424 
L 846.71176 288.37142 
L 848.744917 262.609841 
L 850.778074 313.506815 
L 854.844389 313.506815 
L 856.877546 314.999294 
L 867.043332 314.999294 
L 869.076489 309.384799 
L 875.175961 309.384799 
L 877.209118 274.584722 
L 879.242275 262.609853 
L 881.275433 263.555364 
L 885.341747 263.555364 
L 887.374904 262.609596 
L 889.408062 243.626113 
L 891.441219 223.492155 
L 893.474376 223.492155 
L 895.507533 229.064384 
L 907.706477 229.064384 
L 909.739634 269.070043 
L 911.772791 274.505813 
L 913.805948 274.505813 
L 915.839105 233.607898 
L 917.872263 217.060507 
L 934.13752 217.060507 
L 936.170678 256.728023 
L 938.203835 223.279458 
L 940.236992 212.375778 
L 944.303307 212.376383 
L 946.336464 205.325866 
L 954.469093 205.325866 
L 956.50225 261.349492 
L 982.933294 261.349492 
L 984.966451 269.37335 
L 995.132237 269.37335 
L 997.165394 247.507647 
L 1009.364338 247.507647 
L 1011.397495 268.025011 
L 1013.430652 271.827658 
L 1019.530124 271.827658 
L 1021.563281 250.264987 
L 1023.596438 211.687564 
L 1027.662753 211.687564 
L 1029.69591 221.867263 
L 1035.795382 221.867263 
L 1037.828539 256.405582 
L 1039.861696 232.179596 
L 1041.894853 232.179596 
L 1043.928011 215.635559 
L 1045.961168 213.923251 
L 1047.994325 213.923251 
L 1050.027482 255.283345 
L 1052.060639 219.43793 
L 1054.093797 180.835176 
L 1062.226426 180.835176 
L 1064.259583 172.397717 
L 1066.29274 150.06878 
L 1068.325897 122.931044 
L 1070.359054 124.676094 
L 1072.392212 150.06878 
L 1074.425369 130.214404 
L 1076.458526 114.082445 
L 1078.491683 118.69577 
L 1080.524841 67.784252 
L 1082.557998 81.40551 
L 1084.591155 87.901746 
L 1086.624312 106.4973 
L 1088.657469 100.982791 
L 1090.690627 92.600309 
L 1096.790098 92.600309 
L 1098.823256 56.926981 
L 1100.856413 92.040569 
L 1102.88957 85.990966 
L 1104.922727 47.518125 
L 1104.922727 47.518125 
" clip-path="url(#pa48bb67154)" style="fill: none; stroke: #808080; stroke-width: 1.5; stroke-linecap: square"/>
   </g>
   <g id="line2d_16">
    <path d="M 90.377273 465.792092 
L 92.41043 472.010238 
L 94.443587 472.010238 
L 96.476744 472.010238 
L 98.509902 503.443909 
L 100.543059 471.086529 
L 102.576216 471.086529 
L 104.609373 471.086529 
L 106.642531 471.086529 
L 108.675688 471.086529 
L 110.708845 471.086529 
L 112.742002 486.899871 
L 114.775159 484.142532 
L 116.808317 481.385192 
L 118.841474 481.385192 
L 120.874631 481.385192 
L 122.907788 468.673857 
L 124.940946 451.746881 
L 126.974103 449.666411 
L 129.00726 466.817172 
L 131.040417 466.817172 
L 133.073574 442.782438 
L 135.106732 481.093792 
L 137.139889 480.81718 
L 139.173046 480.81718 
L 141.206203 480.81718 
L 143.239361 480.81718 
L 145.272518 457.757549 
L 147.305675 445.539777 
L 149.338832 452.76125 
L 151.371989 441.425827 
L 153.405147 441.425827 
L 155.438304 440.025098 
L 157.471461 426.2384 
L 159.504618 426.2384 
L 161.537776 399.72658 
L 163.570933 415.890105 
L 165.60409 404.179683 
L 167.637247 399.326766 
L 169.670404 404.841445 
L 171.703562 382.245047 
L 173.736719 416.819328 
L 175.769876 376.606287 
L 177.803033 410.016923 
L 179.836191 376.606287 
L 181.869348 392.719543 
L 183.902505 343.576572 
L 185.935662 343.576572 
L 187.968819 398.665004 
L 190.001977 423.277018 
L 192.035134 371.091608 
L 194.068291 371.091608 
L 196.101448 371.091608 
L 198.134606 371.091608 
L 200.167763 409.694363 
L 202.20092 398.665004 
L 204.234077 398.665004 
L 206.267234 371.091608 
L 208.300392 371.091608 
L 210.333549 398.665004 
L 212.366706 392.301064 
L 214.399863 392.301064 
L 216.433021 392.301064 
L 218.466178 392.301064 
L 220.499335 371.091608 
L 222.532492 347.875554 
L 224.565649 347.875554 
L 226.598807 347.875554 
L 228.631964 347.875554 
L 230.665121 347.875554 
L 232.698278 398.665004 
L 234.731436 398.665004 
L 236.764593 398.665004 
L 238.79775 398.665004 
L 240.830907 398.665004 
L 242.864064 398.665004 
L 244.897222 398.665004 
L 246.930379 398.665004 
L 248.963536 398.665004 
L 250.996693 398.665004 
L 253.029851 398.665004 
L 255.063008 398.665004 
L 257.096165 371.091608 
L 259.129322 357.30491 
L 261.16248 315.944816 
L 263.195637 315.944816 
L 265.228794 344.918377 
L 267.261951 344.918377 
L 269.295108 344.918377 
L 271.328266 344.918377 
L 273.361423 344.918377 
L 275.39458 344.918377 
L 277.427737 344.918377 
L 279.460895 344.918377 
L 281.494052 344.918377 
L 283.527209 344.918377 
L 285.560366 344.918377 
L 287.593523 344.918377 
L 289.626681 322.266017 
L 291.659838 322.266017 
" clip-path="url(#pa48bb67154)" style="fill: none; stroke: #ff0000; stroke-width: 4; stroke-linecap: square"/>
   </g>
   <g id="patch_3">
    <path d="M 39.65 576.718125 
L 39.65 22.318125 
" style="fill: none; stroke: #000000; stroke-width: 0.8; stroke-linejoin: miter; stroke-linecap: square"/>
   </g>
   <g id="patch_4">
    <path d="M 1155.65 576.718125 
L 1155.65 22.318125 
" style="fill: none; stroke: #000000; stroke-width: 0.8; stroke-linejoin: miter; stroke-linecap: square"/>
   </g>
   <g id="patch_5">
    <path d="M 39.65 576.718125 
L 1155.65 576.718125 
" style="fill: none; stroke: #000000; stroke-width: 0.8; stroke-linejoin: miter; stroke-linecap: square"/>
   </g>
   <g id="patch_6">
    <path d="M 39.65 22.318125 
L 1155.65 22.318125 
" style="fill: none; stroke: #000000; stroke-width: 0.8; stroke-linejoin: miter; stroke-linecap: square"/>
   </g>
   <g id="text_15">
    <!-- Plot of the first X-block -->
    <g transform="translate(529.465625 16.318125) scale(0.12 -0.12)">
     <defs>
      <path id="DejaVuSans-50" d="M 1259 4147 
L 1259 2394 
L 2053 2394 
Q 2494 2394 2734 2622 
Q 2975 2850 2975 3272 
Q 2975 3691 2734 3919 
Q 2494 4147 2053 4147 
L 1259 4147 
z
M 628 4666 
L 2053 4666 
Q 2838 4666 3239 4311 
Q 3641 3956 3641 3272 
Q 3641 2581 3239 2228 
Q 2838 1875 2053 1875 
L 1259 1875 
L 1259 0 
L 628 0 
L 628 4666 
z
" transform="scale(0.015625)"/>
      <path id="DejaVuSans-6c" d="M 603 4863 
L 1178 4863 
L 1178 0 
L 603 0 
L 603 4863 
z
" transform="scale(0.015625)"/>
      <path id="DejaVuSans-6f" d="M 1959 3097 
Q 1497 3097 1228 2736 
Q 959 2375 959 1747 
Q 959 1119 1226 758 
Q 1494 397 1959 397 
Q 2419 397 2687 759 
Q 2956 1122 2956 1747 
Q 2956 2369 2687 2733 
Q 2419 3097 1959 3097 
z
M 1959 3584 
Q 2709 3584 3137 3096 
Q 3566 2609 3566 1747 
Q 3566 888 3137 398 
Q 2709 -91 1959 -91 
Q 1206 -91 779 398 
Q 353 888 353 1747 
Q 353 2609 779 3096 
Q 1206 3584 1959 3584 
z
" transform="scale(0.015625)"/>
      <path id="DejaVuSans-74" d="M 1172 4494 
L 1172 3500 
L 2356 3500 
L 2356 3053 
L 1172 3053 
L 1172 1153 
Q 1172 725 1289 603 
Q 1406 481 1766 481 
L 2356 481 
L 2356 0 
L 1766 0 
Q 1100 0 847 248 
Q 594 497 594 1153 
L 594 3053 
L 172 3053 
L 172 3500 
L 594 3500 
L 594 4494 
L 1172 4494 
z
" transform="scale(0.015625)"/>
      <path id="DejaVuSans-20" transform="scale(0.015625)"/>
      <path id="DejaVuSans-66" d="M 2375 4863 
L 2375 4384 
L 1825 4384 
Q 1516 4384 1395 4259 
Q 1275 4134 1275 3809 
L 1275 3500 
L 2222 3500 
L 2222 3053 
L 1275 3053 
L 1275 0 
L 697 0 
L 697 3053 
L 147 3053 
L 147 3500 
L 697 3500 
L 697 3744 
Q 697 4328 969 4595 
Q 1241 4863 1831 4863 
L 2375 4863 
z
" transform="scale(0.015625)"/>
      <path id="DejaVuSans-68" d="M 3513 2113 
L 3513 0 
L 2938 0 
L 2938 2094 
Q 2938 2591 2744 2837 
Q 2550 3084 2163 3084 
Q 1697 3084 1428 2787 
Q 1159 2491 1159 1978 
L 1159 0 
L 581 0 
L 581 4863 
L 1159 4863 
L 1159 2956 
Q 1366 3272 1645 3428 
Q 1925 3584 2291 3584 
Q 2894 3584 3203 3211 
Q 3513 2838 3513 2113 
z
" transform="scale(0.015625)"/>
      <path id="DejaVuSans-65" d="M 3597 1894 
L 3597 1613 
L 953 1613 
Q 991 1019 1311 708 
Q 1631 397 2203 397 
Q 2534 397 2845 478 
Q 3156 559 3463 722 
L 3463 178 
Q 3153 47 2828 -22 
Q 2503 -91 2169 -91 
Q 1331 -91 842 396 
Q 353 884 353 1716 
Q 353 2575 817 3079 
Q 1281 3584 2069 3584 
Q 2775 3584 3186 3129 
Q 3597 2675 3597 1894 
z
M 3022 2063 
Q 3016 2534 2758 2815 
Q 2500 3097 2075 3097 
Q 1594 3097 1305 2825 
Q 1016 2553 972 2059 
L 3022 2063 
z
" transform="scale(0.015625)"/>
      <path id="DejaVuSans-69" d="M 603 3500 
L 1178 3500 
L 1178 0 
L 603 0 
L 603 3500 
z
M 603 4863 
L 1178 4863 
L 1178 4134 
L 603 4134 
L 603 4863 
z
" transform="scale(0.015625)"/>
      <path id="DejaVuSans-72" d="M 2631 2963 
Q 2534 3019 2420 3045 
Q 2306 3072 2169 3072 
Q 1681 3072 1420 2755 
Q 1159 2438 1159 1844 
L 1159 0 
L 581 0 
L 581 3500 
L 1159 3500 
L 1159 2956 
Q 1341 3275 1631 3429 
Q 1922 3584 2338 3584 
Q 2397 3584 2469 3576 
Q 2541 3569 2628 3553 
L 2631 2963 
z
" transform="scale(0.015625)"/>
      <path id="DejaVuSans-73" d="M 2834 3397 
L 2834 2853 
Q 2591 2978 2328 3040 
Q 2066 3103 1784 3103 
Q 1356 3103 1142 2972 
Q 928 2841 928 2578 
Q 928 2378 1081 2264 
Q 1234 2150 1697 2047 
L 1894 2003 
Q 2506 1872 2764 1633 
Q 3022 1394 3022 966 
Q 3022 478 2636 193 
Q 2250 -91 1575 -91 
Q 1294 -91 989 -36 
Q 684 19 347 128 
L 347 722 
Q 666 556 975 473 
Q 1284 391 1588 391 
Q 1994 391 2212 530 
Q 2431 669 2431 922 
Q 2431 1156 2273 1281 
Q 2116 1406 1581 1522 
L 1381 1569 
Q 847 1681 609 1914 
Q 372 2147 372 2553 
Q 372 3047 722 3315 
Q 1072 3584 1716 3584 
Q 2034 3584 2315 3537 
Q 2597 3491 2834 3397 
z
" transform="scale(0.015625)"/>
      <path id="DejaVuSans-58" d="M 403 4666 
L 1081 4666 
L 2241 2931 
L 3406 4666 
L 4084 4666 
L 2584 2425 
L 4184 0 
L 3506 0 
L 2194 1984 
L 872 0 
L 191 0 
L 1856 2491 
L 403 4666 
z
" transform="scale(0.015625)"/>
      <path id="DejaVuSans-2d" d="M 313 2009 
L 1997 2009 
L 1997 1497 
L 313 1497 
L 313 2009 
z
" transform="scale(0.015625)"/>
      <path id="DejaVuSans-62" d="M 3116 1747 
Q 3116 2381 2855 2742 
Q 2594 3103 2138 3103 
Q 1681 3103 1420 2742 
Q 1159 2381 1159 1747 
Q 1159 1113 1420 752 
Q 1681 391 2138 391 
Q 2594 391 2855 752 
Q 3116 1113 3116 1747 
z
M 1159 2969 
Q 1341 3281 1617 3432 
Q 1894 3584 2278 3584 
Q 2916 3584 3314 3078 
Q 3713 2572 3713 1747 
Q 3713 922 3314 415 
Q 2916 -91 2278 -91 
Q 1894 -91 1617 61 
Q 1341 213 1159 525 
L 1159 0 
L 581 0 
L 581 4863 
L 1159 4863 
L 1159 2969 
z
" transform="scale(0.015625)"/>
      <path id="DejaVuSans-63" d="M 3122 3366 
L 3122 2828 
Q 2878 2963 2633 3030 
Q 2388 3097 2138 3097 
Q 1578 3097 1268 2742 
Q 959 2388 959 1747 
Q 959 1106 1268 751 
Q 1578 397 2138 397 
Q 2388 397 2633 464 
Q 2878 531 3122 666 
L 3122 134 
Q 2881 22 2623 -34 
Q 2366 -91 2075 -91 
Q 1284 -91 818 406 
Q 353 903 353 1747 
Q 353 2603 823 3093 
Q 1294 3584 2113 3584 
Q 2378 3584 2631 3529 
Q 2884 3475 3122 3366 
z
" transform="scale(0.015625)"/>
      <path id="DejaVuSans-6b" d="M 581 4863 
L 1159 4863 
L 1159 1991 
L 2875 3500 
L 3609 3500 
L 1753 1863 
L 3688 0 
L 2938 0 
L 1159 1709 
L 1159 0 
L 581 0 
L 581 4863 
z
" transform="scale(0.015625)"/>
     </defs>
     <use xlink:href="#DejaVuSans-50"/>
     <use xlink:href="#DejaVuSans-6c" x="60.302734"/>
     <use xlink:href="#DejaVuSans-6f" x="88.085938"/>
     <use xlink:href="#DejaVuSans-74" x="149.267578"/>
     <use xlink:href="#DejaVuSans-20" x="188.476562"/>
     <use xlink:href="#DejaVuSans-6f" x="220.263672"/>
     <use xlink:href="#DejaVuSans-66" x="281.445312"/>
     <use xlink:href="#DejaVuSans-20" x="316.650391"/>
     <use xlink:href="#DejaVuSans-74" x="348.4375"/>
     <use xlink:href="#DejaVuSans-68" x="387.646484"/>
     <use xlink:href="#DejaVuSans-65" x="451.025391"/>
     <use xlink:href="#DejaVuSans-20" x="512.548828"/>
     <use xlink:href="#DejaVuSans-66" x="544.335938"/>
     <use xlink:href="#DejaVuSans-69" x="579.541016"/>
     <use xlink:href="#DejaVuSans-72" x="607.324219"/>
     <use xlink:href="#DejaVuSans-73" x="648.4375"/>
     <use xlink:href="#DejaVuSans-74" x="700.537109"/>
     <use xlink:href="#DejaVuSans-20" x="739.746094"/>
     <use xlink:href="#DejaVuSans-58" x="771.533203"/>
     <use xlink:href="#DejaVuSans-2d" x="835.039062"/>
     <use xlink:href="#DejaVuSans-62" x="871.123047"/>
     <use xlink:href="#DejaVuSans-6c" x="934.599609"/>
     <use xlink:href="#DejaVuSans-6f" x="962.382812"/>
     <use xlink:href="#DejaVuSans-63" x="1023.564453"/>
     <use xlink:href="#DejaVuSans-6b" x="1078.544922"/>
    </g>
   </g>
   <g id="legend_1">
    <g id="patch_7">
     <path d="M 46.65 59.674375 
L 139.365625 59.674375 
Q 141.365625 59.674375 141.365625 57.674375 
L 141.365625 29.318125 
Q 141.365625 27.318125 139.365625 27.318125 
L 46.65 27.318125 
Q 44.65 27.318125 44.65 29.318125 
L 44.65 57.674375 
Q 44.65 59.674375 46.65 59.674375 
z
" style="fill: #ffffff; opacity: 0.8; stroke: #cccccc; stroke-linejoin: miter"/>
    </g>
    <g id="line2d_17">
     <path d="M 48.65 35.416563 
L 58.65 35.416563 
L 68.65 35.416563 
" style="fill: none; stroke: #808080; stroke-width: 1.5; stroke-linecap: square"/>
    </g>
    <g id="text_16">
     <!-- Open price -->
     <g transform="translate(76.65 38.916563) scale(0.1 -0.1)">
      <defs>
       <path id="DejaVuSans-4f" d="M 2522 4238 
Q 1834 4238 1429 3725 
Q 1025 3213 1025 2328 
Q 1025 1447 1429 934 
Q 1834 422 2522 422 
Q 3209 422 3611 934 
Q 4013 1447 4013 2328 
Q 4013 3213 3611 3725 
Q 3209 4238 2522 4238 
z
M 2522 4750 
Q 3503 4750 4090 4092 
Q 4678 3434 4678 2328 
Q 4678 1225 4090 567 
Q 3503 -91 2522 -91 
Q 1538 -91 948 565 
Q 359 1222 359 2328 
Q 359 3434 948 4092 
Q 1538 4750 2522 4750 
z
" transform="scale(0.015625)"/>
       <path id="DejaVuSans-70" d="M 1159 525 
L 1159 -1331 
L 581 -1331 
L 581 3500 
L 1159 3500 
L 1159 2969 
Q 1341 3281 1617 3432 
Q 1894 3584 2278 3584 
Q 2916 3584 3314 3078 
Q 3713 2572 3713 1747 
Q 3713 922 3314 415 
Q 2916 -91 2278 -91 
Q 1894 -91 1617 61 
Q 1341 213 1159 525 
z
M 3116 1747 
Q 3116 2381 2855 2742 
Q 2594 3103 2138 3103 
Q 1681 3103 1420 2742 
Q 1159 2381 1159 1747 
Q 1159 1113 1420 752 
Q 1681 391 2138 391 
Q 2594 391 2855 752 
Q 3116 1113 3116 1747 
z
" transform="scale(0.015625)"/>
       <path id="DejaVuSans-6e" d="M 3513 2113 
L 3513 0 
L 2938 0 
L 2938 2094 
Q 2938 2591 2744 2837 
Q 2550 3084 2163 3084 
Q 1697 3084 1428 2787 
Q 1159 2491 1159 1978 
L 1159 0 
L 581 0 
L 581 3500 
L 1159 3500 
L 1159 2956 
Q 1366 3272 1645 3428 
Q 1925 3584 2291 3584 
Q 2894 3584 3203 3211 
Q 3513 2838 3513 2113 
z
" transform="scale(0.015625)"/>
      </defs>
      <use xlink:href="#DejaVuSans-4f"/>
      <use xlink:href="#DejaVuSans-70" x="78.710938"/>
      <use xlink:href="#DejaVuSans-65" x="142.1875"/>
      <use xlink:href="#DejaVuSans-6e" x="203.710938"/>
      <use xlink:href="#DejaVuSans-20" x="267.089844"/>
      <use xlink:href="#DejaVuSans-70" x="298.876953"/>
      <use xlink:href="#DejaVuSans-72" x="362.353516"/>
      <use xlink:href="#DejaVuSans-69" x="403.466797"/>
      <use xlink:href="#DejaVuSans-63" x="431.25"/>
      <use xlink:href="#DejaVuSans-65" x="486.230469"/>
     </g>
    </g>
    <g id="line2d_18">
     <path d="M 48.65 50.094688 
L 58.65 50.094688 
L 68.65 50.094688 
" style="fill: none; stroke: #ff0000; stroke-width: 4; stroke-linecap: square"/>
    </g>
    <g id="text_17">
     <!-- First X-block -->
     <g transform="translate(76.65 53.594688) scale(0.1 -0.1)">
      <defs>
       <path id="DejaVuSans-46" d="M 628 4666 
L 3309 4666 
L 3309 4134 
L 1259 4134 
L 1259 2759 
L 3109 2759 
L 3109 2228 
L 1259 2228 
L 1259 0 
L 628 0 
L 628 4666 
z
" transform="scale(0.015625)"/>
      </defs>
      <use xlink:href="#DejaVuSans-46"/>
      <use xlink:href="#DejaVuSans-69" x="50.269531"/>
      <use xlink:href="#DejaVuSans-72" x="78.052734"/>
      <use xlink:href="#DejaVuSans-73" x="119.166016"/>
      <use xlink:href="#DejaVuSans-74" x="171.265625"/>
      <use xlink:href="#DejaVuSans-20" x="210.474609"/>
      <use xlink:href="#DejaVuSans-58" x="242.261719"/>
      <use xlink:href="#DejaVuSans-2d" x="305.767578"/>
      <use xlink:href="#DejaVuSans-62" x="341.851562"/>
      <use xlink:href="#DejaVuSans-6c" x="405.328125"/>
      <use xlink:href="#DejaVuSans-6f" x="433.111328"/>
      <use xlink:href="#DejaVuSans-63" x="494.292969"/>
      <use xlink:href="#DejaVuSans-6b" x="549.273438"/>
     </g>
    </g>
   </g>
  </g>
 </g>
 <defs>
  <clipPath id="pa48bb67154">
   <rect x="39.65" y="22.318125" width="1116" height="554.4"/>
  </clipPath>
 </defs>
</svg>
